<svg width="235" height="111" viewBox="0 0 235 111" fill="none" xmlns="http://www.w3.org/2000/svg">
<g style="mix-blend-mode:overlay" opacity="0.5" filter="url(#filter0_d_533_26294)">
<g filter="url(#filter1_d_533_26294)">
<path fill-rule="evenodd" clip-rule="evenodd" d="M103.398 7.40773C103.873 7.3401 104.565 7.24428 105.263 7.14846L105.246 7.14282H96.4745C97.1166 7.23864 97.7587 7.33446 98.116 7.38519C97.5236 7.46986 96.9055 7.55233 96.2702 7.63709L96.2692 7.63723C94.875 7.82322 93.3984 8.02023 91.9296 8.27574C87.0887 9.10993 82.3987 10.4852 77.9877 12.6778C71.55 15.8792 66.0001 20.2418 61.2765 25.7091C59.3908 27.8884 57.6832 30.1717 56.1859 32.5789C55.6945 32.5905 55.2032 32.6026 54.7122 32.6157C45.5708 32.8597 36.4247 33.1131 27.2833 33.3712L27.2741 33.3714C27.0682 33.3761 26.7844 33.3825 26.6827 33.5073C26.2047 34.0911 25.7491 34.6922 25.2653 35.3306C25.0841 35.5698 24.8989 35.8142 24.707 36.0648H25.5752C35.1205 36.0689 44.6657 36.0695 54.211 36.0695C53.339 37.7763 52.5697 39.5439 51.9131 41.3783C51.8537 41.5446 51.7954 41.711 51.738 41.8775L41.2337 41.987C39.5297 42.0057 37.8258 42.0263 36.1218 42.0468L36.1197 42.0469C32.2869 42.0931 28.4542 42.1393 24.6215 42.1653C22.6247 42.177 20.6268 42.1735 18.6289 42.17C16.631 42.1665 14.6331 42.1629 12.6363 42.1747C12.3313 42.1747 11.9418 42.3483 11.74 42.5736C11.2316 43.1483 10.7815 43.7772 10.3348 44.4013L10.2524 44.5164C10.1599 44.6419 10.1116 44.7954 10.0633 44.9489C10.043 45.0135 10.0226 45.078 9.99902 45.1405C10.0654 45.1578 10.1313 45.1791 10.1969 45.2003C10.3447 45.2481 10.491 45.2954 10.6372 45.2954C18.9288 45.2982 27.2187 45.2959 35.5079 45.2937H35.5257C40.5871 45.2923 45.6482 45.2909 50.7094 45.2907C50.1729 47.3623 49.791 49.4466 49.5586 51.5441C48.3301 51.55 47.1014 51.5548 45.8725 51.5595C42.7136 51.5718 39.5537 51.584 36.3961 51.6165C35.9785 51.6212 35.4294 51.7291 35.1666 52.006C34.5205 52.6787 34.1268 53.5146 33.6939 54.4338C33.5922 54.6496 33.4884 54.8699 33.3787 55.0939H33.374C33.6137 55.1066 33.832 55.1209 34.036 55.1342C34.435 55.1604 34.7797 55.183 35.1244 55.183H49.3048C49.2099 58.4253 49.4602 61.6991 50.037 65.0061C51.4162 72.9196 55.1961 79.4691 60.8354 84.9928C64.1911 88.2788 68.2167 90.6066 72.4657 92.5512C76.7761 94.5239 81.3155 95.5667 86.0167 95.9443C89.1267 96.1979 92.2143 95.9612 95.3076 95.5272C102.304 94.5465 108.886 92.4497 114.905 88.6621C120.545 85.1168 125.341 80.6584 129.11 75.146C130.228 73.5112 131.242 71.8012 132.259 70.0864C132.715 69.3181 133.171 68.5488 133.638 67.7849C133.66 67.8377 133.688 67.8979 133.72 67.9635C133.792 68.1147 133.878 68.2951 133.928 68.4838C134.626 71.0089 135.654 73.3987 136.938 75.6758C140.617 82.2028 145.843 87.1177 152.326 90.7701C157.982 93.9547 164.04 95.8034 170.472 96.305C175.162 96.6658 179.791 96.2374 184.391 95.003C189.299 93.6841 194.051 92.0439 198.501 89.5921C203.632 86.7682 208.132 83.1159 212.135 78.8378C219.221 71.2682 223.313 62.3006 224.129 51.9409C224.497 47.3191 224.224 42.6747 223.213 38.0979C221.65 31.0073 218.166 25.0046 213.073 19.9487C209.45 16.3527 205.106 13.805 200.449 11.7872C195.368 9.58902 190.053 8.45047 184.525 8.25883C180.65 8.12356 176.854 8.69283 173.068 9.44811C169.422 10.1752 165.821 11.0319 162.393 12.4974C152.314 16.8149 144.537 23.8209 138.758 33.1154C136.753 36.3394 135.011 39.7043 133.9 43.368C133.844 43.5652 133.482 43.7794 133.247 43.7963C132.517 43.8421 131.779 43.8396 131.043 43.837C130.956 43.8367 130.869 43.8364 130.783 43.8361C130.7 43.8359 130.616 43.8358 130.533 43.8358C127.983 43.8358 125.433 43.8367 122.883 43.8376H122.879C114.383 43.8406 105.888 43.8436 97.3902 43.8132C95.4862 43.8076 94.1797 44.4558 93.3589 46.2538C92.5296 48.0716 91.6611 49.872 90.7924 51.6727L90.7919 51.6737C90.0231 53.2672 89.2543 54.8609 88.5125 56.467C87.9598 57.6675 87.5075 58.9244 87.1502 60.1926C86.8766 61.1564 87.3065 61.6355 88.3059 61.7483C88.8587 61.8103 89.417 61.8554 89.9698 61.8554C96.977 61.861 103.99 61.861 110.997 61.861H112.052C110.919 64.0366 108.272 67.379 106.084 69.115C99.8022 74.0976 92.8341 75.6702 85.2183 72.7843C80.1932 70.8792 76.6868 67.2776 74.8164 62.1654C73.9062 59.6797 73.7499 57.087 73.7555 54.4548C73.7611 52.0988 73.9956 49.7935 74.7214 47.5614C76.6645 41.6094 80.2602 36.965 85.4863 33.4986C90.1038 30.4381 95.0451 29.1079 100.534 29.8406C104.219 30.3366 107.519 31.6668 110.243 34.2652C110.898 34.8886 111.507 35.5573 112.115 36.2249C112.338 36.4688 112.56 36.7125 112.784 36.9537C113.32 37.5287 113.928 37.7541 114.721 37.5287C115.906 37.1941 117.094 36.8843 118.283 36.5743L118.284 36.5739C118.798 36.4401 119.311 36.3062 119.824 36.1703C121.784 35.6517 123.743 35.1304 125.701 34.609C127.659 34.0876 129.618 33.5663 131.578 33.0477C132.155 32.8968 132.734 32.7508 133.315 32.6045C133.992 32.4339 134.67 32.263 135.346 32.0839C136.251 31.8472 136.43 31.4583 136.055 30.6128C135.986 30.4522 135.915 30.2931 135.843 30.1339C135.772 29.9746 135.701 29.8153 135.631 29.6546C133.174 23.9787 129.506 19.2216 124.688 15.4001C120.137 11.7872 114.967 9.44247 109.294 8.27574C107.904 7.99122 106.496 7.81181 105.151 7.6406C104.552 7.56422 103.965 7.48946 103.398 7.40773ZM186.318 71.612C182.968 73.4156 179.472 74.4245 175.089 74.3287L175.095 74.3231C172.13 74.3625 168.774 73.6129 165.676 71.8374C161.187 69.2616 158.082 65.5641 156.586 60.5533C155.374 56.5121 155.564 52.5046 156.776 48.5027C158.412 43.0974 161.22 38.4812 165.743 35.0148C169.132 32.4221 172.979 30.9566 177.122 30.0604C185.145 28.3188 193.213 31.6273 197.507 38.6165C199.617 42.0547 200.433 45.7747 200.114 49.8442C199.813 53.6431 199.065 57.2786 197.306 60.6492C194.799 65.4514 191.091 69.0474 186.318 71.612Z" fill="url(#paint0_linear_533_26294)" shape-rendering="crispEdges"/>
</g>
</g>
<defs>
<filter id="filter0_d_533_26294" x="5.99902" y="0" width="222.287" height="108" filterUnits="userSpaceOnUse" color-interpolation-filters="sRGB">
<feFlood flood-opacity="0" result="BackgroundImageFix"/>
<feColorMatrix in="SourceAlpha" type="matrix" values="0 0 0 0 0 0 0 0 0 0 0 0 0 0 0 0 0 0 127 0" result="hardAlpha"/>
<feOffset dy="4"/>
<feGaussianBlur stdDeviation="2"/>
<feComposite in2="hardAlpha" operator="out"/>
<feColorMatrix type="matrix" values="0 0 0 0 0 0 0 0 0 0 0 0 0 0 0 0 0 0 0.1 0"/>
<feBlend mode="normal" in2="BackgroundImageFix" result="effect1_dropShadow_533_26294"/>
<feBlend mode="normal" in="SourceGraphic" in2="effect1_dropShadow_533_26294" result="shape"/>
</filter>
<filter id="filter1_d_533_26294" x="-0.000976562" y="1.14282" width="234.286" height="109.286" filterUnits="userSpaceOnUse" color-interpolation-filters="sRGB">
<feFlood flood-opacity="0" result="BackgroundImageFix"/>
<feColorMatrix in="SourceAlpha" type="matrix" values="0 0 0 0 0 0 0 0 0 0 0 0 0 0 0 0 0 0 127 0" result="hardAlpha"/>
<feOffset dy="4"/>
<feGaussianBlur stdDeviation="5"/>
<feComposite in2="hardAlpha" operator="out"/>
<feColorMatrix type="matrix" values="0 0 0 0 0 0 0 0 0 0 0 0 0 0 0 0 0 0 0.16 0"/>
<feBlend mode="normal" in2="BackgroundImageFix" result="effect1_dropShadow_533_26294"/>
<feBlend mode="normal" in="SourceGraphic" in2="effect1_dropShadow_533_26294" result="shape"/>
</filter>
<linearGradient id="paint0_linear_533_26294" x1="154.502" y1="84.0001" x2="-19.498" y2="46.5001" gradientUnits="userSpaceOnUse">
<stop stop-color="white"/>
<stop offset="1" stop-color="white" stop-opacity="0"/>
</linearGradient>
</defs>
</svg>
