<svg width="89" height="88" viewBox="0 0 89 88" fill="none" xmlns="http://www.w3.org/2000/svg">
<g clip-path="url(#clip0_192_28276)">
<path fill-rule="evenodd" clip-rule="evenodd" d="M61.6621 39.5733C61.6786 42.8144 59.0513 45.4655 55.8157 45.4729C52.5783 45.4784 49.9364 42.8401 49.9399 39.6026C49.9437 36.4019 52.5472 33.7764 55.7406 33.7507C58.9871 33.7251 61.6455 36.3396 61.6621 39.5733ZM58.7307 39.6503C58.7507 38.0581 57.4518 36.7133 55.8615 36.6822C54.2584 36.651 52.9154 37.9262 52.8714 39.5239C52.8256 41.1526 54.1575 42.5323 55.7826 42.5396C57.3766 42.5487 58.7087 41.2406 58.7287 39.6503H58.7307Z" fill="#FF8B20"/>
<path d="M36.8126 41.0702C37.6371 41.0262 38.1941 40.3776 38.2014 39.4487H38.2032C38.227 36.3927 35.5026 33.7471 32.3348 33.7507C29.1743 33.7526 26.4444 36.4202 26.4848 39.4652C26.4976 40.3905 27.0638 41.0372 27.89 41.0702C28.7072 41.1032 29.3026 40.5169 29.4107 39.5752C29.6123 37.8035 30.7554 36.6785 32.3495 36.6822C33.9325 36.684 35.0703 37.8144 35.2773 39.5916C35.3854 40.5242 35.9973 41.1123 36.8126 41.0702Z" fill="#FF8B20"/>
<path fill-rule="evenodd" clip-rule="evenodd" d="M8.88507 27.8842V21.741C8.88507 20.9951 8.884 20.2492 8.88293 19.5034L8.88266 19.3436C8.87917 17.028 8.87568 14.7125 8.90154 12.397C8.90887 11.7832 8.73299 11.5065 8.15033 11.272C5.32338 10.1361 3.88333 7.12586 4.71871 4.22739C5.52126 1.43884 8.37577 -0.382321 11.2321 0.0683933C14.202 0.537425 16.3731 3.14092 16.1936 6.15299C16.0452 8.63555 14.7278 10.3486 12.4578 11.3618C12.194 11.4809 11.8459 11.818 11.844 12.0562C11.8116 14.9257 11.8136 17.7964 11.8156 20.775C11.8161 21.5011 11.8165 22.2336 11.8165 22.974C11.9117 22.8461 11.992 22.7436 12.0609 22.655C12.1027 22.6013 12.1404 22.5528 12.1748 22.5068C12.2268 22.4373 12.2713 22.3736 12.3112 22.3071C17.2929 13.936 24.7369 9.19069 34.2585 7.76528C36.9883 7.35595 39.7913 7.36734 42.5755 7.37865C42.9498 7.38017 43.324 7.38168 43.6975 7.38219L43.9416 7.38235C44.1626 7.38235 44.3837 7.38188 44.605 7.38117C44.8743 7.3803 45.1439 7.37906 45.4136 7.37781C48.2244 7.3648 51.0519 7.35171 53.8077 7.76345C63.4283 9.20168 70.9512 13.9836 75.9327 22.4848C75.9667 22.5422 76.0011 22.5996 76.043 22.6693L76.2534 23.018C76.2652 22.8913 76.2777 22.7822 76.2888 22.6846C76.309 22.5084 76.3249 22.3693 76.3249 22.2301C76.326 21.2264 76.3253 20.2227 76.3246 19.219C76.3228 16.9249 76.321 14.6307 76.3414 12.3365C76.3469 11.7594 76.1746 11.501 75.6268 11.2812C72.9702 10.2185 71.4898 7.49229 72.0394 4.79352C72.6202 1.94452 74.9599 0.00792905 77.8145 0.0152648C80.6634 0.0207555 82.9865 1.97201 83.5564 4.83567C84.0896 7.51428 82.5596 10.2295 79.9397 11.3471C79.6575 11.4681 79.2911 11.8455 79.2893 12.1057C79.26 16.4375 79.2643 20.7707 79.2687 25.1041C79.2696 25.9318 79.2705 26.7596 79.2711 27.5874C79.2711 27.6218 79.2818 27.6562 79.3009 27.7174L79.3015 27.7195C79.314 27.7591 79.3296 27.8098 79.348 27.8787H83.2156C86.2644 27.8823 88.0507 29.665 88.0543 32.7137C88.0556 34.1564 88.054 35.5993 88.0523 37.0422C88.0493 39.6913 88.0463 42.3406 88.0616 44.9892C88.0727 46.9679 87.3214 48.4538 85.5553 49.4303C85.3098 49.5659 85.1613 50.0423 85.1266 50.3775C84.998 51.6648 84.8963 52.9563 84.7947 54.2478C84.5924 56.8201 84.39 59.3922 83.9742 61.9293C83.0635 67.4752 80.9034 72.521 76.825 76.5719C74.425 78.9555 71.5925 80.6594 68.4338 81.8265C67.8383 82.0463 67.5471 82.29 67.4426 82.9899C66.9937 86.0093 64.5002 88.0558 61.4972 87.9789C58.6666 87.9074 56.2958 85.7235 55.9367 82.8562C55.5758 79.9668 57.3657 77.3157 60.2038 76.5371C62.4866 75.9105 64.916 76.7368 66.3708 78.7155C66.7335 79.2083 66.9992 79.267 67.5544 79.0581C73.5491 76.8045 77.4645 72.5503 79.6228 66.5976C81.5539 61.2734 82.0247 55.7219 82.142 50.1174C82.142 50.0832 82.1238 50.049 82.0991 50.0027C82.0855 49.9769 82.0697 49.9475 82.054 49.9122H79.2582C79.0776 50.5462 78.9125 51.1834 78.7479 51.8187C78.3909 53.1955 78.0361 54.5639 77.5323 55.874C73.7964 65.5899 64.5643 71.9896 54.1521 72.0061C52.3566 72.008 51.2207 72.51 50.1067 73.9116C47.503 77.1833 44.8013 80.3789 42.1005 83.5735L42.0946 83.5806C41.3671 84.441 40.6398 85.3014 39.9144 86.1632C38.2508 88.1383 35.891 88.5597 33.8665 87.2368C32.3201 86.2273 31.6075 84.7524 31.9134 82.9203C32.3038 80.5882 32.7318 78.2624 33.1598 75.9367C33.2412 75.4945 33.3226 75.0523 33.4037 74.6101C33.5065 74.0488 33.6091 73.4874 33.7107 72.9259C33.7529 72.6895 33.7823 72.4495 33.8134 72.2297C20.0392 70.8775 11.7744 63.4628 8.89241 49.8645C8.46166 49.8645 8.01883 49.8653 7.56803 49.8661H7.55998C6.63147 49.8678 5.66923 49.8695 4.7078 49.8645C1.95768 49.8481 0.0943971 48.0067 0.0870613 45.2732C0.0760576 40.9987 0.0742684 36.7225 0.0870613 32.4481C0.0943971 29.7621 1.95956 27.9007 4.63811 27.8805C5.57064 27.873 6.50408 27.8749 7.47777 27.8768H7.48179C7.9376 27.8778 8.40217 27.8787 8.87962 27.8787L8.88507 27.8842ZM44.0937 22.0194C42.5065 22.0194 40.9194 22.019 39.332 22.0186C36.156 22.0178 32.9798 22.017 29.8029 22.0194C25.2169 22.0249 22.0857 25.1433 22.0821 29.7163C22.0747 36.7994 22.0747 43.8844 22.0821 50.9675C22.0857 55.5406 25.2169 58.6626 29.8029 58.6662C39.3007 58.6717 48.7986 58.6717 58.2947 58.6662C62.9391 58.6644 66.0593 55.5552 66.0629 50.9217C66.0684 43.8679 66.0684 36.8141 66.0629 29.7621C66.0593 25.125 62.9429 22.0231 58.2947 22.0194C55.1385 22.017 51.9832 22.0178 48.8276 22.0186C47.2497 22.019 45.6718 22.0194 44.0937 22.0194Z" fill="#FF8B20"/>
</g>
<defs>
<clipPath id="clip0_192_28276">
<rect width="88" height="88" fill="white" transform="translate(0.078125)"/>
</clipPath>
</defs>
</svg>
