<svg width="61" height="28" viewBox="0 0 61 28" fill="none" xmlns="http://www.w3.org/2000/svg">
<path d="M27.2128 2.00158C27.0174 2.02841 26.8235 2.05524 26.6907 2.07418C27.205 2.14835 27.7788 2.20201 28.3416 2.31722C29.9299 2.6439 31.3776 3.30043 32.6518 4.31205C34.0009 5.38207 35.0281 6.71406 35.716 8.3033C35.755 8.39326 35.7957 8.48164 35.8348 8.57159C35.9395 8.80832 35.8895 8.91722 35.6362 8.9835C35.2845 9.07662 34.9311 9.16184 34.581 9.25337C33.4835 9.54376 32.3876 9.8373 31.2901 10.1277C30.8132 10.2539 30.3364 10.3739 29.8612 10.508C29.6392 10.5712 29.4688 10.508 29.3187 10.3471C29.0842 10.0945 28.8575 9.83257 28.6073 9.59426C27.8444 8.86672 26.9205 8.49426 25.8887 8.35538C24.3519 8.15022 22.9683 8.52267 21.6754 9.37963C20.2121 10.3502 19.2053 11.6506 18.6612 13.3172C18.458 13.9422 18.3923 14.5877 18.3908 15.2473C18.3892 15.9844 18.433 16.7103 18.6878 17.4063C19.2115 18.8377 20.1933 19.8462 21.6003 20.3796C23.7328 21.1877 25.6838 20.7474 27.4426 19.3522C28.0555 18.8661 28.7965 17.9303 29.1139 17.3211C29.0029 17.3211 28.9106 17.3211 28.8184 17.3211C26.8564 17.3211 24.8928 17.3211 22.9308 17.3195C22.776 17.3195 22.6197 17.3069 22.4649 17.2895C22.185 17.258 22.0647 17.1238 22.1413 16.8539C22.2413 16.4989 22.368 16.1469 22.5227 15.8108C22.9652 14.8528 23.442 13.9106 23.8797 12.9511C24.1095 12.4476 24.4754 12.2661 25.0085 12.2677C28.1024 12.2788 31.1947 12.274 34.2886 12.274C34.5419 12.274 34.7967 12.2788 35.0484 12.263C35.1141 12.2583 35.2157 12.1983 35.2313 12.143C35.5424 11.1172 36.0302 10.175 36.5914 9.27231C38.2095 6.66987 40.3873 4.70818 43.2092 3.49928C44.1691 3.08895 45.1774 2.84907 46.1983 2.64548C47.2583 2.434 48.3213 2.27461 49.4063 2.31248C50.9541 2.36614 52.4424 2.68494 53.865 3.30043C55.1689 3.86542 56.3852 4.57877 57.3998 5.58565C58.8256 7.00129 59.8011 8.68207 60.2389 10.6674C60.5218 11.9489 60.5984 13.2494 60.4953 14.5435C60.267 17.4442 59.1211 19.9551 57.1372 22.0746C56.0162 23.2725 54.7562 24.2951 53.3194 25.0858C52.0734 25.7723 50.743 26.2316 49.3688 26.6009C48.0806 26.9465 46.7846 27.0664 45.4713 26.9654C43.6703 26.825 41.9741 26.3073 40.3904 25.4156C38.5753 24.393 37.112 23.0168 36.0818 21.1892C35.7222 20.5517 35.4345 19.8825 35.2391 19.1755C35.2188 19.0997 35.1782 19.0287 35.1578 18.9798C34.7357 19.671 34.3433 20.3781 33.8899 21.0409C32.8347 22.5844 31.4917 23.8327 29.9127 24.8254C28.2274 25.8859 26.3842 26.473 24.4253 26.7476C23.5592 26.8692 22.6947 26.9354 21.8239 26.8644C20.5076 26.7587 19.2365 26.4667 18.0296 25.9144C16.8399 25.3699 15.7127 24.7181 14.7731 23.798C13.1941 22.2514 12.1357 20.4175 11.7496 18.2017C11.3556 15.9433 11.5057 13.7402 12.2749 11.5859C12.8596 9.95251 13.7632 8.50847 14.8966 7.19857C16.2192 5.66772 17.7732 4.4462 19.5758 3.54979C20.8108 2.93587 22.1241 2.55079 23.4795 2.31722C24.0783 2.21306 24.6817 2.14362 25.2117 2.06786C25.1117 2.05366 24.9319 2.02683 24.7521 2C25.5713 2 26.3905 2 27.2081 2L27.2128 2.00158ZM46.7642 20.8121C47.9915 20.8389 48.9701 20.5564 49.9082 20.0514C51.2448 19.3333 52.2829 18.3264 52.9849 16.9818C53.4773 16.038 53.6868 15.0201 53.7712 13.9564C53.8603 12.8169 53.6321 11.7753 53.0411 10.8126C51.8389 8.85567 49.5799 7.92927 47.3333 8.41693C46.1733 8.66786 45.0961 9.07819 44.1472 9.80416C42.8808 10.7748 42.0945 12.0673 41.6364 13.5808C41.2972 14.7013 41.244 15.8234 41.5833 16.955C42.0022 18.358 42.8715 19.3933 44.1284 20.1145C44.9961 20.6116 45.9357 20.8215 46.7658 20.8105L46.7642 20.8121Z" fill="white"/>
<path d="M13.9099 11.7695C13.8087 12.0362 13.7207 12.3095 13.5972 12.5658C13.5656 12.6315 13.4237 12.6735 13.3304 12.6774C12.998 12.6906 12.6643 12.6814 12.3318 12.6814C8.46092 12.6814 4.58999 12.684 0.717761 12.6827C0.658633 12.6827 0.599505 12.6551 0.539062 12.6393C0.5614 12.5802 0.573225 12.5145 0.610016 12.4646C0.742726 12.2793 0.875436 12.0914 1.02654 11.9206C1.08304 11.8575 1.1921 11.8089 1.27751 11.8089C2.39569 11.8023 3.51518 11.8128 4.63336 11.8063C6.18383 11.7958 7.7343 11.7734 9.28477 11.7563C10.671 11.7419 12.0585 11.7274 13.4448 11.713C13.5854 11.7117 13.7259 11.713 13.8652 11.713C13.8797 11.7314 13.8954 11.7498 13.9099 11.7682V11.7695Z" fill="white"/>
<path d="M15.2228 9.08765C15.2228 9.12312 15.2306 9.15072 15.2228 9.16517C15.0414 9.44111 14.8614 9.71967 14.6696 9.98772C14.6341 10.0363 14.5487 10.0639 14.483 10.0744C14.3647 10.0941 14.2439 10.0994 14.1243 10.0994C11.0496 10.0994 7.97497 10.0994 4.90031 10.0981C4.83198 10.0981 4.76366 10.0981 4.65723 10.0981C4.85432 9.84055 5.02645 9.60667 5.2104 9.38198C5.23931 9.3465 5.32078 9.34519 5.37859 9.34387C7.93818 9.2716 10.4991 9.20065 13.0587 9.13232C13.7025 9.11524 14.3477 9.10341 14.9915 9.08896C15.0677 9.08765 15.1426 9.08896 15.2254 9.08896L15.2228 9.08765Z" fill="white"/>
<path d="M7.08579 15.4263C7.2474 15.0965 7.36303 14.7943 7.5864 14.5617C7.65999 14.4842 7.81372 14.454 7.93066 14.4526C9.20783 14.4395 10.4863 14.4382 11.7635 14.4316C12.1945 14.4303 12.6267 14.4224 13.0577 14.4237C13.2837 14.4237 13.3205 14.4645 13.3258 14.6918C13.3297 14.8705 13.3284 15.0505 13.3284 15.2305C13.3284 15.3632 13.2535 15.4302 13.1287 15.4434C13.0577 15.4513 12.9868 15.4513 12.9158 15.4513C11.1354 15.4513 9.35499 15.4513 7.57458 15.4513C7.42873 15.4513 7.28288 15.4368 7.08447 15.4263H7.08579Z" fill="white"/>
</svg>
