<svg width="25" height="24" viewBox="0 0 25 24" fill="none" xmlns="http://www.w3.org/2000/svg">
<path fill-rule="evenodd" clip-rule="evenodd" d="M6.24868 18.7905C2.63586 15.1777 2.63586 9.3219 6.24868 5.70907C8.05139 3.90636 10.4134 3.00357 12.7752 3C13.1091 2.9995 13.4032 3.21988 13.4965 3.54057C13.5897 3.86125 13.4597 4.20497 13.1776 4.38364C12.8312 4.60296 12.5114 4.84609 12.2269 5.13053C10.1058 7.25164 10.1058 10.6912 12.2269 12.8123C14.3481 14.9334 17.7876 14.9334 19.9087 12.8123C20.1942 12.5268 20.4362 12.2081 20.6556 11.8617C20.8343 11.5795 21.178 11.4495 21.4987 11.5428C21.8193 11.636 22.0397 11.9301 22.0392 12.2641C22.0357 14.6258 21.1329 16.9878 19.3302 18.7905C15.7173 22.4034 9.8615 22.4034 6.24868 18.7905ZM7.30934 6.76973C4.2823 9.79677 4.2823 14.7029 7.30934 17.7299C10.3364 20.7569 15.2425 20.7569 18.2695 17.7299C19.1931 16.8063 19.8346 15.7086 20.1945 14.5422C17.4807 16.5576 13.6279 16.3345 11.1663 13.8729C8.70471 11.4114 8.48163 7.55852 10.497 4.84477C9.33063 5.20459 8.23294 5.84613 7.30934 6.76973Z" fill="white"/>
</svg>
