<svg width="33" height="32" viewBox="0 0 33 32" fill="none" xmlns="http://www.w3.org/2000/svg">
<path d="M16.9648 3C18.9279 3.00113 20.8654 3.44688 22.6316 4.30379C24.3979 5.1607 25.9472 6.40652 27.1632 7.94775C28.3791 9.48898 29.2303 11.2856 29.6527 13.2028C30.0751 15.12 30.0578 17.1079 29.6021 19.0175C29.1464 20.927 28.2642 22.7086 27.0215 24.2284C25.7789 25.7483 24.2082 26.9669 22.4273 27.793C20.6464 28.619 18.7015 29.031 16.7386 28.998C14.7757 28.965 12.8458 28.4878 11.0937 27.6024L10.8971 27.4967L4.97396 28.9755C4.85997 29.0041 4.74112 29.0077 4.6256 28.986C4.51009 28.9643 4.40067 28.9177 4.30489 28.8496C4.2091 28.7815 4.12925 28.6934 4.07082 28.5914C4.01239 28.4894 3.97679 28.3759 3.96647 28.2588V28.1256L3.98922 27.9907L5.46796 22.0693L5.36559 21.8743C4.62196 20.4104 4.16421 18.8182 4.01684 17.1829L3.97622 16.5622L3.96484 15.9999C3.96484 12.5521 5.33447 9.24555 7.77243 6.80759C10.2104 4.36963 13.517 3 16.9648 3ZM16.9648 4.62499C14.9798 4.62467 13.0293 5.14379 11.307 6.13077C9.58482 7.11775 8.15086 8.53823 7.14765 10.251C6.14444 11.9639 5.60691 13.9094 5.58848 15.8943C5.57005 17.8792 6.07135 19.8344 7.04258 21.5655C7.11798 21.7001 7.15349 21.8534 7.14495 22.0075L7.1222 22.1603L5.89371 27.0694L10.8077 25.8441C10.9076 25.8195 11.0112 25.814 11.1132 25.8279L11.2611 25.862L11.4024 25.9237C12.9191 26.7734 14.6103 27.2641 16.3462 27.3582C18.0821 27.4523 19.8164 27.1472 21.416 26.4665C23.0156 25.7858 24.4379 24.7474 25.5737 23.4313C26.7094 22.1151 27.5284 20.5562 27.9676 18.8742C28.4069 17.1922 28.4548 15.4318 28.1076 13.7284C27.7605 12.025 27.0275 10.4238 25.965 9.04786C24.9026 7.6719 23.5388 6.55777 21.9786 5.79106C20.4184 5.02434 18.7032 4.62544 16.9648 4.62499ZM17.7773 17.6249C17.9803 17.6245 18.1761 17.7002 18.3262 17.837C18.4762 17.9738 18.5696 18.1618 18.5879 18.364C18.6063 18.5662 18.5482 18.7679 18.4253 18.9295C18.3023 19.0911 18.1233 19.2007 17.9235 19.2369L17.7773 19.2499H12.9023C12.6993 19.2503 12.5034 19.1746 12.3534 19.0378C12.2034 18.901 12.11 18.713 12.0916 18.5108C12.0733 18.3086 12.1313 18.1069 12.2543 17.9453C12.3772 17.7837 12.5563 17.6741 12.756 17.6379L12.9023 17.6249H17.7773ZM21.0272 12.7499C21.2303 12.7496 21.4261 12.8252 21.5761 12.962C21.7262 13.0988 21.8196 13.2868 21.8379 13.489C21.8563 13.6912 21.7982 13.893 21.6753 14.0545C21.5523 14.2161 21.3733 14.3258 21.1735 14.3619L21.0272 14.3749H12.9023C12.6993 14.3753 12.5034 14.2996 12.3534 14.1629C12.2034 14.0261 12.11 13.8381 12.0916 13.6359C12.0733 13.4336 12.1313 13.2319 12.2543 13.0703C12.3772 12.9088 12.5563 12.7991 12.756 12.7629L12.9023 12.7499H21.0272Z" fill="#FF8B20" stroke="#FF8B20"/>
</svg>
