<svg width="33" height="32" viewBox="0 0 33 32" fill="none" xmlns="http://www.w3.org/2000/svg">
<path d="M1.96484 15.9999C1.96484 7.71568 8.68057 0.99988 16.9648 0.99988C25.249 0.99988 31.9648 7.71568 31.9648 15.9999C31.9648 18.4273 31.3867 20.7731 30.2968 22.8806L31.8978 28.6193C32.1763 29.6167 31.5936 30.651 30.5962 30.9295C30.2662 31.0217 29.9172 31.0216 29.5875 30.9295L23.8531 29.328C21.7438 30.4203 19.3953 30.9999 16.9648 30.9999C8.68057 30.9999 1.96484 24.2842 1.96484 15.9999ZM4.21484 15.9999C4.21484 23.0415 9.92321 28.7499 16.9648 28.7499C19.1692 28.7499 21.2899 28.1907 23.1711 27.1403L23.5756 26.9144L29.5519 28.5834L27.8836 22.6036L28.1091 22.1992C29.157 20.3198 29.7148 18.2016 29.7148 15.9999C29.7148 8.95828 24.0064 3.24988 16.9648 3.24988C9.92321 3.24988 4.21484 8.95828 4.21484 15.9999Z" fill="#DD4202"/>
<path d="M18.4668 22.7484C18.4668 21.92 17.7952 21.2484 16.9668 21.2484C16.1383 21.2484 15.4668 21.92 15.4668 22.7484C15.4668 23.5769 16.1383 24.2484 16.9668 24.2484C17.7952 24.2484 18.4668 23.5769 18.4668 22.7484Z" fill="#DD4202"/>
<path d="M21.0918 12.2484C21.0918 9.97024 19.245 8.12341 16.9668 8.12341C14.6886 8.12341 12.8418 9.97024 12.8418 12.2484C12.8418 12.8697 13.3455 13.3734 13.9668 13.3734C14.5881 13.3734 15.0918 12.8697 15.0918 12.2484L15.1015 12.0567C15.1975 11.1112 15.996 10.3734 16.9668 10.3734C18.0024 10.3734 18.8418 11.2129 18.8418 12.2484C18.8418 13.124 18.6042 13.5201 17.6713 14.453L17.4184 14.7105C16.288 15.8874 15.8418 16.7322 15.8418 18.2484C15.8418 18.8697 16.3455 19.3734 16.9668 19.3734C17.5881 19.3734 18.0918 18.8697 18.0918 18.2484C18.0918 17.3729 18.3294 16.9767 19.2622 16.0439L19.5151 15.7863C20.6455 14.6094 21.0918 13.7646 21.0918 12.2484Z" fill="#DD4202"/>
</svg>
