<svg width="33" height="32" viewBox="0 0 33 32" fill="none" xmlns="http://www.w3.org/2000/svg">
<path fill-rule="evenodd" clip-rule="evenodd" d="M11.7289 4.2035C13.3598 3.41251 15.1487 3.00105 16.9614 3C20.1449 3 23.198 4.26427 25.4491 6.5147C27.7002 8.76512 28.9648 11.8173 28.9648 14.9999L28.9543 15.5189L28.9168 16.0919C28.7808 17.6014 28.3581 19.0711 27.6715 20.4224L27.5769 20.6024L28.9423 26.0684L28.9633 26.1929V26.3159C28.9538 26.4239 28.9209 26.5287 28.867 26.6228C28.813 26.717 28.7393 26.7983 28.6509 26.8612C28.5624 26.9241 28.4614 26.967 28.3547 26.9871C28.2481 27.0071 28.1383 27.0038 28.0331 26.9774L22.564 25.6124L22.3824 25.7099C20.7646 26.5272 18.9826 26.9677 17.1702 26.9982C15.3578 27.0286 13.562 26.6483 11.9175 25.8858C10.2731 25.1233 8.82283 23.9984 7.67546 22.5955C6.52809 21.1925 5.71346 19.548 5.2927 17.7854C4.87193 16.0227 4.85596 14.1877 5.24599 12.418C5.63602 10.6482 6.42191 8.98983 7.5447 7.56715C8.66748 6.14448 10.098 4.99449 11.7289 4.2035ZM11.9664 11C11.7166 10.9995 11.4756 11.1042 11.291 11.2936C11.1064 11.483 10.9915 11.7434 10.9689 12.0234C10.9464 12.3033 11.0178 12.5827 11.1691 12.8064C11.3204 13.0301 11.5406 13.1819 11.7864 13.232L11.9664 13.25H21.9633C22.2131 13.2505 22.4541 13.1458 22.6387 12.9564C22.8233 12.767 22.9382 12.5066 22.9608 12.2267C22.9833 11.9467 22.9119 11.6673 22.7606 11.4436C22.6093 11.2199 22.3891 11.0681 22.1433 11.018L21.9633 11H11.9664ZM15.9652 16.75C15.7153 16.7495 15.4744 16.8542 15.2898 17.0436C15.1052 17.233 14.9903 17.4934 14.9677 17.7733C14.9451 18.0533 15.0165 18.3327 15.1678 18.5564C15.3191 18.7801 15.5394 18.9319 15.7852 18.982L15.9652 19H21.9633C22.2131 19.0005 22.4541 18.8958 22.6387 18.7064C22.8233 18.517 22.9382 18.2566 22.9608 17.9767C22.9833 17.6967 22.9119 17.4173 22.7606 17.1936C22.6093 16.9699 22.3891 16.8181 22.1433 16.768L21.9633 16.75H15.9652Z" fill="white"/>
</svg>
