<svg width="38" height="39" viewBox="0 0 38 39" fill="none" xmlns="http://www.w3.org/2000/svg">
<rect width="32" height="32" transform="translate(1.96484)" fill="#FFA13A"/>
<g filter="url(#filter0_d_244_16938)">
<path d="M27.0648 9.46C26.9582 9.59333 26.8248 9.76667 26.6648 9.98C26.5048 10.18 26.3782 10.3533 26.2848 10.5C25.9782 11.02 25.5715 11.62 25.0648 12.3C24.5582 12.9667 23.9982 13.6333 23.3848 14.3C22.7715 14.9533 22.1382 15.5133 21.4848 15.98L19.4048 14.32C19.8048 14.08 20.1982 13.8 20.5848 13.48C20.9715 13.16 21.3248 12.8267 21.6448 12.48C21.9782 12.12 22.2648 11.78 22.5048 11.46C22.7582 11.14 22.9515 10.8533 23.0848 10.6C22.9115 10.6 22.6182 10.6 22.2048 10.6C21.7915 10.6 21.2982 10.6 20.7248 10.6C20.1515 10.6 19.5315 10.6 18.8648 10.6C18.2115 10.6 17.5582 10.6 16.9048 10.6C16.2515 10.6 15.6315 10.6 15.0448 10.6C14.4715 10.6 13.9715 10.6 13.5448 10.6C13.1315 10.6 12.8382 10.6 12.6648 10.6C12.2515 10.6 11.8582 10.6133 11.4848 10.64C11.1115 10.6667 10.6915 10.7 10.2248 10.74V7.96C10.6115 8.01333 11.0115 8.06 11.4248 8.1C11.8382 8.14 12.2515 8.16 12.6648 8.16C12.8382 8.16 13.1448 8.16 13.5848 8.16C14.0248 8.16 14.5448 8.16 15.1448 8.16C15.7582 8.16 16.4048 8.16 17.0848 8.16C17.7782 8.16 18.4648 8.16 19.1448 8.16C19.8382 8.16 20.4782 8.16 21.0648 8.16C21.6648 8.16 22.1715 8.16 22.5848 8.16C23.0115 8.16 23.2982 8.16 23.4448 8.16C23.6315 8.16 23.8582 8.15333 24.1248 8.14C24.3915 8.12667 24.6515 8.10667 24.9048 8.08C25.1715 8.05333 25.3648 8.02 25.4848 7.98L27.0648 9.46ZM18.9048 12.16C18.9048 13.1467 18.8848 14.1 18.8448 15.02C18.8048 15.94 18.6915 16.8267 18.5048 17.68C18.3315 18.52 18.0448 19.32 17.6448 20.08C17.2582 20.84 16.7182 21.56 16.0248 22.24C15.3315 22.92 14.4448 23.5467 13.3648 24.12L11.0248 22.22C11.3448 22.1133 11.6848 21.9733 12.0448 21.8C12.4048 21.6133 12.7648 21.3867 13.1248 21.12C13.7648 20.68 14.2782 20.2133 14.6648 19.72C15.0648 19.2267 15.3715 18.6933 15.5848 18.12C15.7982 17.5333 15.9448 16.9 16.0248 16.22C16.1048 15.5267 16.1448 14.7733 16.1448 13.96C16.1448 13.6533 16.1382 13.36 16.1248 13.08C16.1115 12.7867 16.0715 12.48 16.0048 12.16H18.9048Z" fill="#FEF5EE"/>
</g>
<defs>
<filter id="filter0_d_244_16938" x="0.224609" y="1.95996" width="36.8403" height="36.16" filterUnits="userSpaceOnUse" color-interpolation-filters="sRGB">
<feFlood flood-opacity="0" result="BackgroundImageFix"/>
<feColorMatrix in="SourceAlpha" type="matrix" values="0 0 0 0 0 0 0 0 0 0 0 0 0 0 0 0 0 0 127 0" result="hardAlpha"/>
<feOffset dy="4"/>
<feGaussianBlur stdDeviation="5"/>
<feComposite in2="hardAlpha" operator="out"/>
<feColorMatrix type="matrix" values="0 0 0 0 0 0 0 0 0 0 0 0 0 0 0 0 0 0 0.16 0"/>
<feBlend mode="normal" in2="BackgroundImageFix" result="effect1_dropShadow_244_16938"/>
<feBlend mode="normal" in="SourceGraphic" in2="effect1_dropShadow_244_16938" result="shape"/>
</filter>
</defs>
</svg>
