<svg width="33" height="32" viewBox="0 0 33 32" fill="none" xmlns="http://www.w3.org/2000/svg">
<path d="M30.3469 7.49159C30.9195 6.20082 30.577 4.8968 29.7686 4.02887C28.9069 3.10356 27.5157 2.6739 26.1396 3.28436L6.18153 12.1379C3.01471 13.5428 3.30941 18.1302 6.6284 19.1205L6.92871 19.2103C8.76801 19.7588 10.4028 20.762 11.7052 22.0923C12.9528 23.3664 13.8954 24.9405 14.4208 26.7023L14.5106 27.0032C15.5007 30.3233 20.0878 30.6159 21.4925 27.4495L30.3469 7.49159Z" fill="#FF8B20"/>
<path d="M6.18153 12.1379C3.0147 13.5428 3.30941 18.1302 6.6284 19.1205L6.92871 19.2103C8.76801 19.7588 10.4028 20.762 11.7052 22.0923L29.7687 4.02887C28.9069 3.10356 27.5157 2.6739 26.1396 3.28436L6.18153 12.1379Z" fill="#323237"/>
</svg>
