<svg width="41" height="40" viewBox="0 0 41 40" fill="none" xmlns="http://www.w3.org/2000/svg">
<path fill-rule="evenodd" clip-rule="evenodd" d="M15.6151 5C11.1497 5 7.53906 8.63569 7.53906 13.109V31.8684C7.53906 34.5635 10.7277 36.0085 12.74 34.1889L19.0743 28.4609C19.7318 27.8663 20.7281 27.8663 21.3856 28.4609L27.7199 34.1889C29.7322 36.0085 32.9208 34.5635 32.9208 31.8684V13.109C32.9208 8.63569 29.3102 5 24.8448 5H15.6151ZM13.3076 11.9498C13.3076 11.3126 13.8242 10.7961 14.4614 10.7961H25.9985C26.6357 10.7961 27.1522 11.3126 27.1522 11.9498C27.1522 12.587 26.6357 13.1035 25.9985 13.1035H14.4614C13.8242 13.1035 13.3076 12.587 13.3076 11.9498Z" fill="#323237"/>
<path fill-rule="evenodd" clip-rule="evenodd" d="M15.6151 5C11.1497 5 7.53906 8.63569 7.53906 13.109V14.6143L21.3856 28.4609L27.7199 34.1889C29.7322 36.0085 32.9208 34.5635 32.9208 31.8684V13.109C32.9208 8.63569 29.3102 5 24.8448 5H15.6151ZM14.4614 10.7961H25.9985C26.6357 10.7961 27.1522 11.3126 27.1522 11.9498C27.1522 12.587 26.6357 13.1035 25.9985 13.1035H14.4614C13.8242 13.1035 13.3076 12.587 13.3076 11.9498C13.3076 11.3126 13.8242 10.7961 14.4614 10.7961Z" fill="#FF8B20"/>
</svg>
