<svg width="41" height="40" viewBox="0 0 41 40" fill="none" xmlns="http://www.w3.org/2000/svg">
<path d="M13.6693 7C9.65126 7 5.62846 8.83427 4.17765 13.0121C3.63825 14.5654 3.06173 16.5271 2.48883 18.9934C1.29129 24.1488 1.42494 27.6085 1.81721 29.7217C2.23283 31.9608 4.27928 33 6.1162 33C7.74268 33 9.28385 32.2656 10.3035 30.9993L12.9563 27.705C13.7196 26.7571 14.8778 26.2026 16.1055 26.2026H24.5282C25.7558 26.2026 26.9141 26.7571 27.6774 27.705L30.3301 30.9993C31.3498 32.2656 32.891 33 34.5175 33C36.3544 33 38.4009 31.9608 38.8165 29.7217C39.2088 27.6085 39.3424 24.1488 38.1449 18.9934C37.572 16.5272 36.9955 14.5655 36.4561 13.0122C35.0053 8.83432 30.9825 7 26.9643 7H13.6693Z" fill="#FF8B20"/>
<path d="M26.2299 19.6167C26.2299 18.9079 26.8082 18.3333 27.5216 18.3333H28.6289C29.3423 18.3333 29.9206 18.9079 29.9206 19.6167V20.7167C29.9206 21.4254 29.3423 22 28.6289 22H27.5216C26.8082 22 26.2299 21.4254 26.2299 20.7167V19.6167Z" fill="#FEF5EE"/>
<path d="M22.5391 15.95C22.5391 15.2412 23.1174 14.6667 23.8308 14.6667H24.9381C25.6515 14.6667 26.2299 15.2412 26.2299 15.95V17.05C26.2299 17.7588 25.6515 18.3333 24.9381 18.3333H23.8308C23.1174 18.3333 22.5391 17.7588 22.5391 17.05V15.95Z" fill="#FEF5EE"/>
<path d="M26.2299 12.2833C26.2299 11.5746 26.8082 11 27.5216 11H28.6289C29.3423 11 29.9206 11.5746 29.9206 12.2833V13.3833C29.9206 14.0921 29.3423 14.6667 28.6289 14.6667H27.5216C26.8082 14.6667 26.2299 14.0921 26.2299 13.3833V12.2833Z" fill="#FEF5EE"/>
<path d="M29.9206 15.95C29.9206 15.2412 30.499 14.6667 31.2124 14.6667H32.3197C33.0331 14.6667 33.6114 15.2412 33.6114 15.95V17.05C33.6114 17.7588 33.0331 18.3333 32.3197 18.3333H31.2124C30.499 18.3333 29.9206 17.7588 29.9206 17.05V15.95Z" fill="#FEF5EE"/>
<path d="M14.9391 12.9082C14.9391 11.8543 14.0884 11 13.0391 11C11.9897 11 11.1391 11.8543 11.1391 12.9082V14.5918H9.43906C8.38972 14.5918 7.53906 15.4461 7.53906 16.5C7.53906 17.5538 8.38972 18.4082 9.43906 18.4082H11.1391V20.0918C11.1391 21.1457 11.9897 22 13.0391 22C14.0884 22 14.9391 21.1457 14.9391 20.0918V18.4082H16.6391C17.6884 18.4082 18.5391 17.5538 18.5391 16.5C18.5391 15.4461 17.6884 14.5918 16.6391 14.5918H14.9391V12.9082Z" fill="#323237"/>
</svg>
