<svg width="21" height="20" viewBox="0 0 21 20" fill="none" xmlns="http://www.w3.org/2000/svg">
<g clip-path="url(#clip0_23_6558)">
<path fill-rule="evenodd" clip-rule="evenodd" d="M16.9608 14.8094V8.12813C16.9608 7.80451 16.6992 7.59434 16.3758 7.59434H16.359C16.029 7.59434 15.7608 7.79732 15.7608 8.12755V13.2604C15.7608 13.5282 15.4368 13.6614 15.2478 13.4722L5.97172 4.17389C5.74072 3.94213 5.36512 3.94214 5.13411 4.1733C4.90311 4.40506 4.90311 4.78006 5.13471 5.01062L14.4342 14.292C14.6238 14.4811 14.49 14.7991 14.2224 14.7991H9.14996C8.82356 14.7991 8.56075 15.0742 8.56075 15.4015V15.4182C8.56075 15.7454 8.82356 16 9.14996 16H15.7584C16.4214 16 16.9608 15.4728 16.9608 14.8094Z" fill="#F96407"/>
</g>
<defs>
<clipPath id="clip0_23_6558">
<rect width="20" height="20" fill="white" transform="translate(0.960938)"/>
</clipPath>
</defs>
</svg>
