<svg width="33" height="32" viewBox="0 0 33 32" fill="none" xmlns="http://www.w3.org/2000/svg">
<path d="M29.7431 6.38962C29.4659 6.39788 29.2029 6.5137 29.0097 6.71254L12.6972 23.025L5.98473 16.3125C5.88644 16.2102 5.76871 16.1284 5.63844 16.0721C5.50817 16.0158 5.36797 15.9861 5.22606 15.9846C5.08415 15.9832 4.94338 16.0101 4.81199 16.0637C4.6806 16.1174 4.56124 16.1967 4.46089 16.297C4.36054 16.3974 4.28122 16.5168 4.22758 16.6481C4.17394 16.7795 4.14705 16.9203 4.14849 17.0622C4.14994 17.2041 4.17968 17.3443 4.23599 17.4746C4.29229 17.6049 4.37402 17.7226 4.47639 17.8209L11.9431 25.2875C12.1431 25.4875 12.4144 25.5998 12.6972 25.5998C12.9801 25.5998 13.2513 25.4875 13.4514 25.2875L30.5181 8.22087C30.6722 8.07105 30.7775 7.87815 30.8201 7.66746C30.8627 7.45677 30.8407 7.23813 30.7569 7.04017C30.6731 6.84221 30.5315 6.67418 30.3506 6.55809C30.1697 6.44201 29.9579 6.38329 29.7431 6.38962Z" fill="#F96407" stroke="#F96407" stroke-width="2"/>
</svg>
