<svg width="33" height="32" viewBox="0 0 33 32" fill="none" xmlns="http://www.w3.org/2000/svg">
<path fill-rule="evenodd" clip-rule="evenodd" d="M31.3725 0.123275C30.8835 -0.143358 30.271 0.0368473 30.0043 0.525776L21.9299 15.3324C20.9636 14.7109 18.4804 13.338 16.6244 14.2664C15.0413 15.0585 14.6795 15.7113 14.0977 16.7614L14.0385 16.8682L26.2234 22.7255C26.7997 21.5398 27.1537 20.1605 26.7081 18.9726C26.2381 17.7193 24.8322 16.7853 23.7406 16.2241L31.775 1.49134C32.0416 1.00241 31.8613 0.389909 31.3725 0.123275ZM12.9271 18.6362L12.9618 18.5882L25.1598 24.4518C24.994 24.671 24.8346 24.8635 24.6914 25.0226L19.1572 31.4791C18.8325 31.8581 18.3492 32.0627 17.8566 31.9829C16.6476 31.7868 14.3046 31.2249 12.7264 29.6947C12.5289 29.503 12.6121 29.174 12.8445 29.0268C14.2094 28.1621 15.409 26.0383 15.409 26.0383C15.409 26.0383 12.9271 27.7214 9.76567 27.6224C7.3346 27.5462 4.35042 25.2549 3.1013 24.2003C2.85176 23.9894 2.96347 23.5907 3.28229 23.5199C5.30881 23.07 10.7582 21.6185 12.9271 18.6362Z" fill="white"/>
<path d="M11.8506 11.1358C11.7105 10.8089 11.247 10.8089 11.1069 11.1358L10.5335 12.4736C10.4103 12.7613 10.1811 12.9903 9.89354 13.1136L8.55573 13.687C8.22881 13.827 8.22883 14.2906 8.55573 14.4306L9.89354 15.004C10.1811 15.1273 10.4103 15.3563 10.5335 15.644L11.1069 16.9818C11.247 17.3087 11.7105 17.3087 11.8506 16.9818L12.4239 15.644C12.5472 15.3563 12.7763 15.1273 13.0639 15.004L14.4017 14.4306C14.7286 14.2906 14.7286 13.827 14.4017 13.687L13.0639 13.1136C12.7763 12.9903 12.5472 12.7613 12.4239 12.4736L11.8506 11.1358Z" fill="white"/>
<path d="M20.4715 6.32221C20.3663 6.07701 20.0188 6.07701 19.9136 6.32221L19.4837 7.32555C19.3911 7.54124 19.2193 7.71311 19.0037 7.80555L18.0003 8.23556C17.7551 8.34063 17.7551 8.68825 18.0003 8.79332L19.0037 9.22333C19.2193 9.31577 19.3911 9.48764 19.4837 9.70333L19.9136 10.7067C20.0188 10.9519 20.3663 10.9519 20.4715 10.7067L20.9014 9.70333C20.9939 9.48764 21.1658 9.31577 21.3814 9.22333L22.3848 8.79332C22.63 8.68825 22.63 8.34063 22.3848 8.23556L21.3814 7.80555C21.1658 7.71311 20.9939 7.54124 20.9014 7.32555L20.4715 6.32221Z" fill="white"/>
</svg>
