<svg width="25" height="24" viewBox="0 0 25 24" fill="none" xmlns="http://www.w3.org/2000/svg">
<path fill-rule="evenodd" clip-rule="evenodd" d="M12.2122 5.23361C12.2122 5.64782 12.548 5.98361 12.9622 5.98361C13.3764 5.98361 13.7122 5.64782 13.7122 5.23361V2.75C13.7122 2.33579 13.3764 2 12.9622 2C12.548 2 12.2122 2.33579 12.2122 2.75V5.23361ZM8.74078 7.6996C8.44561 7.9902 7.96704 7.9902 7.67186 7.6996L5.88803 5.94342C5.59285 5.65283 5.59285 5.18168 5.88803 4.89108C6.1832 4.60049 6.66177 4.60049 6.95694 4.89108L8.74078 6.64726C9.03595 6.93786 9.03595 7.40901 8.74078 7.6996ZM10.3489 11.8566C10.3489 10.4529 11.508 9.29509 12.9625 9.29509C14.4171 9.29509 15.5762 10.4529 15.5762 11.8566C15.5762 13.2602 14.4171 14.4181 12.9625 14.4181C11.508 14.4181 10.3489 13.2602 10.3489 11.8566ZM12.9625 7.79509C10.7017 7.79509 8.8489 9.60247 8.8489 11.8566C8.8489 14.1107 10.7017 15.9181 12.9625 15.9181C15.2233 15.9181 17.0762 14.1107 17.0762 11.8566C17.0762 9.60247 15.2233 7.79509 12.9625 7.79509ZM12.2122 21.1629V21.25C12.2122 21.6642 12.548 22 12.9622 22C13.3764 22 13.7122 21.6642 13.7122 21.25V21.1629V18.7664V18.6792C13.7122 18.265 13.3764 17.9292 12.9622 17.9292C12.548 17.9292 12.2122 18.265 12.2122 18.6792V18.7664V21.1629ZM8.74078 16.0135C9.03595 16.3041 9.03595 16.7753 8.74078 17.0659L6.95694 18.8221C6.66177 19.1127 6.1832 19.1127 5.88803 18.8221C5.59285 18.5315 5.59285 18.0603 5.88803 17.7697L7.67186 16.0135C7.96704 15.723 8.44561 15.723 8.74078 16.0135ZM6.23562 12.6066C6.64983 12.6066 6.98562 12.2708 6.98562 11.8566C6.98562 11.4424 6.64983 11.1066 6.23562 11.1066H3.71289C3.29868 11.1066 2.96289 11.4424 2.96289 11.8566C2.96289 12.2708 3.29868 12.6066 3.71289 12.6066H6.23562ZM17.1836 6.64726C16.8884 6.93786 16.8884 7.40901 17.1836 7.6996C17.4788 7.9902 17.9573 7.9902 18.2525 7.6996L20.0363 5.94342C20.3315 5.65283 20.3315 5.18168 20.0363 4.89108C19.7412 4.60049 19.2626 4.60049 18.9674 4.89108L17.1836 6.64726ZM18.9387 11.8566C18.9387 11.4424 19.2745 11.1066 19.6887 11.1066H22.2115C22.6257 11.1066 22.9615 11.4424 22.9615 11.8566C22.9615 12.2708 22.6257 12.6066 22.2115 12.6066H19.6887C19.2745 12.6066 18.9387 12.2708 18.9387 11.8566ZM18.2525 16.0135C17.9573 15.723 17.4788 15.723 17.1836 16.0135C16.8884 16.3041 16.8884 16.7753 17.1836 17.0659L18.9674 18.8221C19.2626 19.1127 19.7412 19.1127 20.0363 18.8221C20.3315 18.5315 20.3315 18.0603 20.0363 17.7697L18.2525 16.0135Z" fill="white"/>
</svg>
