<svg width="21" height="20" viewBox="0 0 21 20" fill="none" xmlns="http://www.w3.org/2000/svg">
<g clip-path="url(#clip0_23_7289)">
<path fill-rule="evenodd" clip-rule="evenodd" d="M5.86245 15.8245C6.09685 16.0587 6.47633 16.0587 6.71014 15.8245C6.94454 15.5903 6.94454 15.2114 6.71014 14.9778L2.84938 11.115C2.66053 10.9263 2.79421 10.5994 3.06099 10.5994L10.9294 10.5994C11.2603 10.5994 11.5391 10.3356 11.5391 10.0049L11.5391 10.0026C11.5391 9.67197 11.2603 9.40143 10.9294 9.40143L3.06099 9.40143C2.79421 9.40143 2.66053 9.08327 2.84938 8.89459L6.72872 5.02037C6.96313 4.78678 6.96313 4.40906 6.72872 4.17486C6.49492 3.94127 6.11544 3.94184 5.88104 4.17604L0.89022 9.16237C0.422012 9.63016 0.422012 10.3891 0.89022 10.8569C0.998729 10.9647 5.97096 15.9329 5.86245 15.8245Z" fill="#F96407"/>
</g>
<defs>
<clipPath id="clip0_23_7289">
<rect width="20" height="20" fill="white" transform="translate(0.539062)"/>
</clipPath>
</defs>
</svg>
