<svg width="309" height="72" viewBox="0 0 309 72" fill="none" xmlns="http://www.w3.org/2000/svg">
<path d="M32.0488 59.8458C32.2936 60.1842 32.5678 60.5073 32.8753 60.8148C34.4939 62.4334 36.5335 63.1321 38.9671 63.4593C41.3136 63.7748 44.2988 63.7748 48.0102 63.7747H58.5028L66.6614 68.6698C67.2705 69.0353 68.0292 69.0449 68.6474 68.6949C69.2656 68.3449 69.6477 67.6894 69.6477 66.979V63.5997C72.69 63.3479 75.1592 62.6957 77.0401 60.8148C78.6625 59.1925 79.3589 57.1361 79.685 54.6832C80.0001 52.3135 80.0001 49.2927 80 45.5314V45.2434C80.0001 41.4821 80.0001 38.4612 79.685 36.0915C79.3589 33.6386 78.6625 31.5822 77.0401 29.9599C75.999 28.9188 74.7838 28.2583 73.4015 27.8324C73.4314 29.5788 73.4313 31.4956 73.4313 33.5962V33.8916C73.4314 38.9356 73.4314 42.9201 73.0178 46.0308C72.5931 49.2247 71.6997 51.7989 69.6837 53.8148C67.6715 55.8271 65.1182 56.7228 61.9517 57.1485C58.8724 57.5625 54.9359 57.5625 49.9581 57.5624H35.8545L32.0488 59.8458Z" fill="#FF8B20"/>
<path d="M53.6471 39.481C53.989 38.449 53.4296 37.3353 52.3976 36.9934C51.3656 36.6515 50.2518 37.211 49.9099 38.243C49.753 38.7166 49.718 38.814 49.6859 38.8851C49.3979 39.5226 48.7931 39.9594 48.0973 40.0324C48.0197 40.0405 47.9162 40.0431 47.4173 40.0431H36.7774C36.538 40.0431 36.4879 40.0425 36.4511 40.0407C35.6311 40 34.9225 39.4547 34.6731 38.6725C34.6619 38.6374 34.6485 38.5891 34.5872 38.3577C34.3087 37.3068 33.231 36.6807 32.1801 36.9592C31.1292 37.2377 30.5031 38.3154 30.7816 39.3663L30.7914 39.4034C30.8374 39.5768 30.8773 39.7275 30.9221 39.8683C31.6702 42.2149 33.7962 43.8508 36.2561 43.9728C36.4037 43.9801 36.5595 43.9801 36.739 43.98L47.4969 43.98C47.8716 43.9802 48.1977 43.9803 48.5077 43.9478C50.5951 43.729 52.4095 42.4187 53.2737 40.506C53.402 40.222 53.5044 39.9124 53.6221 39.5567L53.6471 39.481Z" fill="white"/>
<path fill-rule="evenodd" clip-rule="evenodd" d="M31.4443 3.43198C32.0203 2.85601 32.9541 2.85601 33.5301 3.43198L39.18 9.08188L44.8299 3.43198C45.4058 2.85601 46.3397 2.85601 46.9157 3.43198L47.6137 4.13003C48.1897 4.706 48.1897 5.63984 47.6137 6.21581L43.9041 9.92547H49.9581C54.9359 9.92543 58.8723 9.9254 61.9517 10.3394C65.1182 10.7651 67.6715 11.6608 69.6837 13.6731C71.6997 15.689 72.5931 18.2632 73.0178 21.4572C73.4314 24.5679 73.4314 28.5522 73.4313 33.5963V33.8916C73.4314 38.9357 73.4314 42.92 73.0178 46.0307C72.5931 49.2247 71.6997 51.7989 69.6837 53.8148C67.6715 55.8271 65.1182 56.7228 61.9517 57.1485C58.8723 57.5625 54.9359 57.5625 49.9581 57.5624H35.8544L24.8387 64.1719C24.2306 64.5368 23.4732 64.5463 22.8561 64.1969C22.2389 63.8475 21.8575 63.1931 21.8575 62.4839V57.3771C17.5733 57.0805 14.2845 56.2737 11.8257 53.8148C9.80976 51.7989 8.91637 49.2247 8.49168 46.0307C8.07806 42.92 8.07809 38.9357 8.07813 33.8915V33.5964C8.07809 28.5522 8.07806 24.5679 8.49168 21.4572C8.91637 18.2632 9.80976 15.689 11.8257 13.6731C13.8379 11.6608 16.3913 10.7651 19.5578 10.3394C22.6371 9.9254 26.5735 9.92543 31.5513 9.92547H34.4559L30.7463 6.21582C30.1703 5.63984 30.1703 4.70601 30.7463 4.13003L31.4443 3.43198ZM20.0823 14.2412C17.3524 14.6083 15.7684 15.2981 14.6095 16.4569C13.4545 17.612 12.7623 19.208 12.3943 21.9761C12.0192 24.7971 12.0151 28.5194 12.0151 33.7439C12.0151 38.9685 12.0192 42.6908 12.3943 45.5118C12.7623 48.2799 13.4545 49.8759 14.6095 51.031C16.2454 52.6669 18.6969 53.3436 23.9009 53.5421C24.9581 53.5824 25.7944 54.4511 25.7944 55.5091V59.0072L34.2964 53.906C34.6024 53.7225 34.9524 53.6255 35.3092 53.6255H49.8097C54.969 53.6255 58.6405 53.6213 61.4271 53.2467C64.157 52.8796 65.7411 52.1898 66.8999 51.031C68.055 49.8759 68.7471 48.2799 69.1152 45.5118C69.4903 42.6908 69.4944 38.9685 69.4944 33.7439C69.4944 28.5194 69.4903 24.7971 69.1152 21.9761C68.7471 19.208 68.055 17.612 66.8999 16.4569C65.7411 15.2981 64.157 14.6083 61.4271 14.2412C58.6405 13.8666 54.969 13.8624 49.8097 13.8624H31.6998C26.5404 13.8624 22.8689 13.8666 20.0823 14.2412Z" fill="white"/>
<path d="M36.4755 25.4765C36.4755 24.3894 35.5942 23.5081 34.507 23.5081C33.4199 23.5081 32.5386 24.3894 32.5386 25.4765V30.2009C32.5386 31.288 33.4199 32.1693 34.507 32.1693C35.5942 32.1693 36.4755 31.288 36.4755 30.2009V25.4765Z" fill="#FF8B20"/>
<path d="M52.3303 25.4765C52.3303 24.3894 51.4489 23.5081 50.3618 23.5081C49.2746 23.5081 48.3933 24.3894 48.3933 25.4765V30.2009C48.3933 31.288 49.2746 32.1693 50.3618 32.1693C51.4489 32.1693 52.3303 31.288 52.3303 30.2009V25.4765Z" fill="#FF8B20"/>
<path d="M209.382 42.8771C197.346 42.8771 189.145 34.4093 189.145 23.9711C189.145 13.5329 197.346 5.06512 209.382 5.06512C213.003 5.06512 215.986 5.59769 218.702 6.82258V13.7459C215.4 12.2547 212.684 11.4559 209.116 11.4559C201.234 11.4559 195.802 16.888 195.802 23.9711C195.802 31.0542 201.234 36.4863 209.116 36.4863C212.684 36.4863 215.4 35.6875 218.702 34.1963V41.1196C215.986 42.3445 213.003 42.8771 209.382 42.8771Z" fill="white"/>
<path d="M230.659 42.3445H224.535V4H230.393V19.0715C232.204 17.4738 234.6 16.7815 236.997 16.7815C242.216 16.7815 246.37 20.7757 246.37 26.1014V42.3445H240.246V27.3263C240.246 24.6634 238.115 22.6397 235.453 22.6397C232.79 22.6397 230.659 24.6634 230.659 27.3263V42.3445Z" fill="white"/>
<path d="M264.172 42.8771C256.983 42.8771 251.71 37.0189 251.71 29.8293C251.71 22.6397 256.983 16.7815 264.172 16.7815C266.942 16.7815 269.178 17.6336 270.883 19.0715V17.3141H277.007V42.3445H271.149V40.3208C269.391 41.9185 267.048 42.8771 264.172 42.8771ZM264.758 36.7526C268.433 36.7526 271.415 33.7703 271.415 29.8293C271.415 25.8351 268.433 22.906 264.758 22.906C261.083 22.906 258.101 25.8351 258.101 29.8293C258.101 33.7703 261.083 36.7526 264.758 36.7526Z" fill="white"/>
<path d="M291.13 23.1723V33.1844C291.13 35.8473 292.302 37.0189 294.805 37.0189C296.616 37.0189 297.894 36.5396 300.184 35.4212L297.148 41.812C295.923 42.5043 294.432 42.8771 292.728 42.8771C288.041 42.8771 285.006 39.948 285.006 33.8768V23.1723H281.278V17.3141H285.006V10.9233L291.13 9.32563V17.3141H300.716L297.894 23.1723H291.13Z" fill="white"/>
<path d="M143.087 67.0496C142.027 67.0496 141.084 66.868 140.26 66.5047C139.44 66.1414 138.792 65.6358 138.316 64.9878C137.839 64.3398 137.587 63.5911 137.557 62.7418H140.326C140.35 63.1493 140.485 63.5052 140.731 63.8096C140.976 64.109 141.303 64.3422 141.71 64.5091C142.118 64.676 142.574 64.7595 143.08 64.7595C143.62 64.7595 144.099 64.6662 144.516 64.4797C144.933 64.2882 145.26 64.0231 145.495 63.6844C145.731 63.3457 145.846 62.9554 145.841 62.5136C145.846 62.057 145.728 61.6545 145.488 61.3059C145.247 60.9574 144.899 60.6849 144.442 60.4886C143.991 60.2922 143.446 60.194 142.807 60.194H141.475V58.088H142.807C143.333 58.088 143.792 57.9972 144.184 57.8155C144.582 57.6339 144.894 57.3786 145.12 57.0497C145.345 56.7159 145.456 56.3305 145.451 55.8936C145.456 55.4665 145.36 55.0959 145.164 54.7817C144.972 54.4626 144.7 54.2147 144.346 54.038C143.998 53.8612 143.588 53.7729 143.117 53.7729C142.655 53.7729 142.228 53.8563 141.835 54.0232C141.443 54.1901 141.126 54.4282 140.886 54.7375C140.645 55.0419 140.517 55.4052 140.503 55.8273H137.874C137.893 54.983 138.136 54.2417 138.603 53.6035C139.074 52.9604 139.702 52.4597 140.488 52.1013C141.273 51.738 142.155 51.5564 143.131 51.5564C144.138 51.5564 145.012 51.7454 145.753 52.1234C146.499 52.4965 147.076 52.9997 147.483 53.633C147.891 54.2662 148.095 54.9658 148.095 55.7316C148.099 56.5809 147.849 57.2927 147.343 57.8671C146.843 58.4414 146.185 58.817 145.37 58.9937V59.1115C146.43 59.2588 147.243 59.6515 147.807 60.2897C148.377 60.923 148.659 61.7109 148.654 62.6535C148.654 63.4979 148.414 64.2539 147.933 64.9215C147.456 65.5842 146.799 66.1046 145.959 66.4826C145.125 66.8606 144.167 67.0496 143.087 67.0496Z" fill="white"/>
<path d="M156.705 67.0496C155.983 67.0447 155.278 66.9195 154.591 66.6741C153.904 66.4237 153.285 66.0187 152.736 65.4591C152.186 64.8945 151.749 64.1459 151.425 63.2131C151.101 62.2755 150.941 61.1145 150.946 59.7301C150.946 58.439 151.084 57.2878 151.359 56.2765C151.633 55.2652 152.029 54.4111 152.544 53.714C153.06 53.0119 153.681 52.4769 154.407 52.1087C155.139 51.7405 155.956 51.5564 156.859 51.5564C157.807 51.5564 158.646 51.7429 159.378 52.116C160.114 52.4891 160.708 52.9997 161.16 53.6477C161.611 54.2908 161.891 55.0173 161.999 55.8273H159.311C159.174 55.2481 158.892 54.7866 158.465 54.443C158.042 54.0944 157.507 53.9201 156.859 53.9201C155.814 53.9201 155.008 54.3742 154.444 55.2824C153.884 56.1906 153.602 57.4375 153.597 59.0232H153.7C153.941 58.5912 154.252 58.2205 154.635 57.9113C155.018 57.602 155.45 57.3639 155.931 57.197C156.417 57.0252 156.93 56.9393 157.47 56.9393C158.354 56.9393 159.147 57.1503 159.849 57.5725C160.556 57.9947 161.115 58.5764 161.528 59.3177C161.94 60.0541 162.144 60.8985 162.139 61.8508C162.144 62.8425 161.918 63.7335 161.462 64.5239C161.005 65.3093 160.369 65.9279 159.554 66.3795C158.739 66.8312 157.79 67.0545 156.705 67.0496ZM156.69 64.8405C157.225 64.8405 157.704 64.7104 158.126 64.4502C158.548 64.19 158.882 63.839 159.127 63.3972C159.373 62.9554 159.493 62.4596 159.488 61.9097C159.493 61.3697 159.375 60.8813 159.135 60.4444C158.899 60.0075 158.573 59.6614 158.155 59.4061C157.738 59.1508 157.262 59.0232 156.727 59.0232C156.329 59.0232 155.958 59.0993 155.615 59.2515C155.271 59.4036 154.972 59.6147 154.716 59.8847C154.461 60.1498 154.26 60.4591 154.113 60.8126C153.97 61.1611 153.897 61.5342 153.892 61.9318C153.897 62.4571 154.019 62.9407 154.26 63.3825C154.5 63.8243 154.832 64.1778 155.254 64.4429C155.676 64.708 156.155 64.8405 156.69 64.8405Z" fill="white"/>
<path d="M169.871 67.0496C168.889 67.0496 168.01 66.8655 167.235 66.4973C166.459 66.1242 165.843 65.6137 165.386 64.9657C164.935 64.3177 164.694 63.5764 164.665 62.7418H167.316C167.365 63.3604 167.632 63.866 168.118 64.2588C168.604 64.6466 169.189 64.8405 169.871 64.8405C170.406 64.8405 170.882 64.7178 171.299 64.4723C171.717 64.2269 172.046 63.8857 172.286 63.4488C172.527 63.0118 172.645 62.5136 172.64 61.9539C172.645 61.3845 172.524 60.8788 172.279 60.437C172.033 59.9952 171.697 59.6491 171.27 59.3987C170.843 59.1435 170.352 59.0158 169.797 59.0158C169.346 59.0109 168.901 59.0944 168.464 59.2662C168.027 59.438 167.681 59.6638 167.426 59.9436L164.959 59.5386L165.747 51.7626H174.495V54.0453H168.008L167.573 58.0438H167.662C167.942 57.7149 168.337 57.4424 168.847 57.2264C169.358 57.0055 169.918 56.8951 170.526 56.8951C171.439 56.8951 172.254 57.1111 172.971 57.5431C173.688 57.9702 174.252 58.5593 174.665 59.3104C175.077 60.0615 175.283 60.9206 175.283 61.8877C175.283 62.8842 175.052 63.7728 174.591 64.5533C174.134 65.329 173.499 65.9401 172.684 66.3869C171.874 66.8287 170.936 67.0496 169.871 67.0496Z" fill="white"/>
<path d="M184.726 51.9549C185.251 51.9549 185.922 51.9549 186.737 51.9549C187.553 51.941 188.41 51.9134 189.309 51.8719C190.207 51.8166 191.037 51.7337 191.797 51.6231C192.322 51.554 192.834 51.471 193.332 51.3742C193.843 51.2775 194.327 51.1807 194.783 51.0839C195.253 50.9733 195.675 50.8558 196.048 50.7314C196.435 50.607 196.76 50.4895 197.023 50.3789L198.723 52.6599C198.364 52.7428 198.052 52.8189 197.79 52.888C197.527 52.9571 197.306 53.0124 197.126 53.0539C196.698 53.1645 196.235 53.2751 195.737 53.3857C195.239 53.4824 194.728 53.5723 194.202 53.6552C193.677 53.7382 193.145 53.8211 192.606 53.9041C191.818 54.0146 190.981 54.0976 190.097 54.1529C189.212 54.2082 188.355 54.2566 187.525 54.298C186.696 54.3257 185.977 54.3464 185.369 54.3603L184.726 51.9549ZM185.618 66.2421C186.834 65.6891 187.83 65.0186 188.604 64.2307C189.392 63.4289 189.972 62.5096 190.346 61.4728C190.733 60.4221 190.926 59.2471 190.926 57.9476C190.926 57.9476 190.926 57.7955 190.926 57.4914C190.926 57.1735 190.926 56.7034 190.926 56.0814C190.926 55.4454 190.926 54.6436 190.926 53.676L193.643 53.3649C193.643 53.7243 193.643 54.1114 193.643 54.5261C193.643 54.927 193.643 55.3279 193.643 55.7288C193.643 56.1297 193.643 56.4961 193.643 56.8279C193.643 57.1458 193.643 57.4085 193.643 57.6158C193.643 57.8094 193.643 57.9061 193.643 57.9061C193.643 59.2885 193.47 60.6018 193.124 61.846C192.792 63.0902 192.233 64.2376 191.445 65.2882C190.657 66.325 189.592 67.2443 188.251 68.0461L185.618 66.2421ZM183.171 56.9108C183.461 56.9384 183.772 56.9661 184.104 56.9937C184.436 57.0214 184.761 57.0352 185.079 57.0352C185.272 57.0352 185.638 57.0352 186.178 57.0352C186.717 57.0352 187.366 57.0352 188.127 57.0352C188.901 57.0352 189.73 57.0352 190.615 57.0352C191.5 57.0352 192.385 57.0352 193.269 57.0352C194.154 57.0352 194.984 57.0352 195.758 57.0352C196.532 57.0352 197.195 57.0352 197.748 57.0352C198.301 57.0352 198.675 57.0352 198.868 57.0352C199.02 57.0352 199.214 57.0283 199.449 57.0145C199.684 57.0007 199.919 56.9868 200.154 56.973C200.403 56.9454 200.603 56.9246 200.755 56.9108V59.5858C200.479 59.5581 200.174 59.5374 199.843 59.5236C199.525 59.5097 199.221 59.5028 198.93 59.5028C198.737 59.5028 198.364 59.5028 197.811 59.5028C197.271 59.5028 196.608 59.5028 195.82 59.5028C195.046 59.5028 194.209 59.5028 193.311 59.5028C192.426 59.5028 191.534 59.5028 190.636 59.5028C189.751 59.5028 188.922 59.5028 188.147 59.5028C187.373 59.5028 186.717 59.5028 186.178 59.5028C185.638 59.5028 185.286 59.5028 185.12 59.5028C184.802 59.5028 184.463 59.5097 184.104 59.5236C183.745 59.5374 183.433 59.5581 183.171 59.5858V56.9108Z" fill="white"/>
<path d="M210.382 53.676C210.423 53.911 210.471 54.1667 210.527 54.4432C210.596 54.7059 210.658 54.9754 210.713 55.2519C210.838 55.6528 210.983 56.1712 211.149 56.8071C211.328 57.443 211.522 58.1411 211.729 58.9015C211.937 59.6618 212.144 60.436 212.351 61.2239C212.573 61.9981 212.787 62.7446 212.994 63.4634C213.202 64.1685 213.381 64.7975 213.533 65.3504C213.685 65.8896 213.803 66.3043 213.886 66.5946C213.941 66.7052 213.997 66.8711 214.052 67.0923C214.107 67.3134 214.169 67.5346 214.238 67.7558C214.321 67.977 214.391 68.1567 214.446 68.295L211.626 69C211.584 68.7097 211.536 68.4056 211.481 68.0876C211.425 67.7696 211.349 67.4655 211.252 67.1752C211.169 66.8711 211.052 66.4356 210.9 65.8688C210.748 65.2882 210.575 64.6316 210.382 63.8989C210.188 63.1662 209.981 62.4059 209.759 61.6179C209.552 60.8299 209.352 60.0627 209.158 59.3162C208.965 58.5559 208.778 57.8716 208.598 57.2633C208.432 56.6412 208.294 56.1574 208.183 55.8118C208.114 55.5353 208.025 55.2726 207.914 55.0238C207.817 54.775 207.713 54.5469 207.603 54.3395L210.382 53.676ZM220.335 56.8693C220.128 57.3255 219.844 57.8439 219.485 58.4245C219.139 59.0052 218.759 59.5996 218.344 60.2079C217.929 60.8161 217.515 61.3967 217.1 61.9497C216.685 62.4888 216.291 62.9589 215.918 63.3598L213.637 62.2193C213.997 61.9013 214.377 61.5142 214.778 61.058C215.178 60.6018 215.552 60.1456 215.897 59.6894C216.257 59.2194 216.519 58.8185 216.685 58.4867C216.533 58.5144 216.243 58.5697 215.814 58.6526C215.4 58.7356 214.895 58.8393 214.301 58.9637C213.706 59.0881 213.056 59.2263 212.351 59.3784C211.66 59.5166 210.962 59.6618 210.257 59.8139C209.552 59.9659 208.882 60.1111 208.246 60.2493C207.61 60.3737 207.05 60.4912 206.566 60.6018C206.082 60.6986 205.716 60.7746 205.467 60.8299L204.824 58.3416C205.156 58.3139 205.474 58.2794 205.778 58.2379C206.082 58.1964 206.4 58.1481 206.732 58.0928C206.898 58.0651 207.188 58.0167 207.603 57.9476C208.031 57.8785 208.536 57.7886 209.117 57.678C209.711 57.5674 210.347 57.4499 211.024 57.3255C211.702 57.1873 212.386 57.056 213.077 56.9315C213.768 56.7933 214.418 56.6689 215.026 56.5583C215.635 56.4339 216.167 56.3302 216.623 56.2472C217.079 56.1505 217.411 56.0744 217.618 56.0191C217.798 55.9915 217.985 55.95 218.178 55.8947C218.372 55.8256 218.538 55.7565 218.676 55.6874L220.335 56.8693Z" fill="white"/>
<path d="M233.295 54.5261C233.392 54.7473 233.516 55.0653 233.668 55.48C233.834 55.8809 234.007 56.3164 234.187 56.7864C234.366 57.2426 234.525 57.678 234.664 58.0928C234.802 58.5075 234.912 58.8324 234.995 59.0674L232.507 59.9383C232.452 59.6756 232.355 59.3438 232.217 58.9429C232.078 58.542 231.926 58.1204 231.761 57.678C231.595 57.2218 231.429 56.7864 231.263 56.3717C231.097 55.9569 230.952 55.6113 230.827 55.3349L233.295 54.5261ZM240.947 56.0399C240.836 56.3717 240.739 56.6551 240.656 56.8901C240.587 57.1251 240.518 57.3463 240.449 57.5536C240.186 58.6043 239.827 59.6549 239.371 60.7055C238.914 61.7423 238.334 62.7169 237.629 63.6293C236.661 64.8735 235.562 65.931 234.332 66.802C233.115 67.659 231.899 68.3157 230.682 68.7719L228.505 66.5531C229.265 66.3458 230.067 66.0416 230.91 65.6407C231.754 65.226 232.569 64.7283 233.357 64.1477C234.145 63.5671 234.823 62.9243 235.389 62.2193C235.859 61.6248 236.274 60.9474 236.634 60.1871C237.007 59.413 237.311 58.5904 237.546 57.7195C237.795 56.8348 237.961 55.9638 238.044 55.1068L240.947 56.0399ZM228.484 55.6252C228.622 55.8878 228.775 56.2265 228.94 56.6412C229.12 57.056 229.3 57.4914 229.48 57.9476C229.659 58.4038 229.832 58.8462 229.998 59.2747C230.178 59.7033 230.316 60.0627 230.413 60.353L227.883 61.3069C227.8 61.0304 227.675 60.671 227.51 60.2286C227.358 59.7862 227.185 59.3231 226.991 58.8393C226.798 58.3416 226.611 57.8854 226.431 57.4707C226.265 57.056 226.12 56.738 225.996 56.5168L228.484 55.6252Z" fill="white"/>
<path d="M250.071 64.8528C250.071 64.5901 250.071 64.1615 250.071 63.5671C250.071 62.9589 250.071 62.2607 250.071 61.4728C250.071 60.671 250.071 59.8346 250.071 58.9637C250.071 58.0928 250.071 57.2564 250.071 56.4546C250.071 55.639 250.071 54.9201 250.071 54.298C250.071 53.676 250.071 53.2198 250.071 52.9295C250.071 52.57 250.05 52.1553 250.008 51.6853C249.981 51.2153 249.932 50.8005 249.863 50.4411H253.098C253.057 50.8005 253.015 51.2014 252.974 51.6438C252.932 52.0724 252.911 52.5009 252.911 52.9295C252.911 53.3165 252.911 53.8418 252.911 54.5054C252.911 55.169 252.911 55.9086 252.911 56.7242C252.911 57.526 252.911 58.3485 252.911 59.1918C252.911 60.0212 252.911 60.823 252.911 61.5972C252.911 62.3713 252.911 63.0487 252.911 63.6293C252.911 64.1961 252.911 64.6039 252.911 64.8528C252.911 65.0463 252.918 65.3228 252.932 65.6822C252.946 66.0278 252.974 66.3872 253.015 66.7605C253.057 67.1337 253.084 67.4655 253.098 67.7558H249.863C249.918 67.3411 249.967 66.8573 250.008 66.3043C250.05 65.7513 250.071 65.2675 250.071 64.8528ZM252.289 55.8118C252.981 55.9915 253.755 56.2265 254.612 56.5168C255.469 56.7933 256.333 57.0905 257.204 57.4085C258.075 57.7264 258.89 58.0444 259.651 58.3623C260.425 58.6665 261.068 58.9499 261.579 59.2125L260.397 62.0741C259.817 61.77 259.174 61.4658 258.469 61.1617C257.764 60.8438 257.045 60.5396 256.312 60.2493C255.593 59.959 254.881 59.6894 254.176 59.4406C253.485 59.1918 252.856 58.9706 252.289 58.7771V55.8118Z" fill="white"/>
<path fill-rule="evenodd" clip-rule="evenodd" d="M154.507 30.3074C154.507 23.7036 149.767 18.9106 142.364 18.9106C139.382 18.9106 136.986 19.6561 135.175 21.0408C136.578 17.0271 139.101 14.1331 142.805 12.4935L132.357 13.7254L132.351 13.7338C129.465 17.7642 127.879 22.984 127.879 29.0293C127.879 35.8238 131.604 40.5866 136.92 42.2377L154.149 33.3673C154.383 32.3987 154.507 31.3755 154.507 30.3074ZM134.27 30.6269C134.27 34.3016 136.986 36.7514 141.193 36.7514C145.4 36.7514 148.116 34.3016 148.116 30.6269C148.116 26.9523 145.4 24.5025 141.193 24.5025C136.986 24.5025 134.27 26.9523 134.27 30.6269Z" fill="#FF8B20"/>
<path fill-rule="evenodd" clip-rule="evenodd" d="M98.0781 40.8521C101.114 42.1303 105.641 42.8759 109.209 42.8759C118.475 42.8759 123.109 38.0296 123.109 31.5323C123.109 24.6622 118.262 21.7331 112.777 20.7213L117.766 15.4458L108.886 16.4927L108.85 16.497L108.828 16.5207L105.001 20.668V25.4611C110.487 25.9404 116.452 26.899 116.452 31.8518C116.452 35.7928 112.724 37.0177 108.623 37.0177C105.534 37.0177 101.913 36.3254 98.0781 34.4614V40.8521ZM159.837 22.958C164.845 23.1229 168.656 23.625 171.438 24.466L178.498 20.8312C175.846 19.2841 172.094 18.1749 166.867 17.8987L167.825 11.721H183.269V7.72253L161.785 10.2557L159.837 22.958Z" fill="#FF8B20"/>
<path d="M154.149 33.3671L136.92 42.2375C138.271 42.6571 139.725 42.8757 141.246 42.8757C147.573 42.8757 152.771 39.0634 154.149 33.3671Z" fill="white"/>
<path d="M117.766 15.4456L108.85 16.4968L113.256 11.7208H98.877V5.59633H122.043V10.922L117.766 15.4456Z" fill="white"/>
<path d="M132.356 13.7253C136.386 8.10303 142.946 4.79749 151.258 4.79749V10.922C147.958 10.922 145.146 11.4571 142.805 12.4934L132.356 13.7253Z" fill="white"/>
<path d="M158.772 40.5857C161.807 41.8639 165.162 42.8757 170.115 42.8757C180.234 42.8757 184.335 36.485 184.335 30.5735C184.335 27.3548 183.005 23.4605 178.498 20.831L171.438 24.4659C175.838 25.7983 177.678 27.9858 177.678 31.0528C177.678 34.9405 174.961 37.0175 169.955 37.0175C165.162 37.0175 162.606 36.0589 158.772 34.195V40.5857Z" fill="white"/>
<path d="M183.269 7.72238L161.785 10.2555L162.5 5.59633H183.269V7.72238Z" fill="white"/>
</svg>
