<svg width="309" height="72" viewBox="0 0 309 72" fill="none" xmlns="http://www.w3.org/2000/svg">
<path d="M209.303 42.8771C197.267 42.8771 189.066 34.4093 189.066 23.9711C189.066 13.5329 197.267 5.06512 209.303 5.06512C212.925 5.06512 215.907 5.59769 218.623 6.82258V13.7459C215.321 12.2547 212.605 11.4559 209.037 11.4559C201.155 11.4559 195.723 16.888 195.723 23.9711C195.723 31.0542 201.155 36.4863 209.037 36.4863C212.605 36.4863 215.321 35.6875 218.623 34.1963V41.1196C215.907 42.3445 212.925 42.8771 209.303 42.8771Z" fill="#323237"/>
<path d="M230.581 42.3445H224.456V4H230.315V19.0715C232.125 17.4738 234.522 16.7815 236.918 16.7815C242.137 16.7815 246.291 20.7757 246.291 26.1014V42.3445H240.167V27.3263C240.167 24.6634 238.037 22.6397 235.374 22.6397C232.711 22.6397 230.581 24.6634 230.581 27.3263V42.3445Z" fill="#323237"/>
<path d="M264.094 42.8771C256.904 42.8771 251.632 37.0189 251.632 29.8293C251.632 22.6397 256.904 16.7815 264.094 16.7815C266.863 16.7815 269.1 17.6336 270.804 19.0715V17.3141H276.928V42.3445H271.07V40.3208C269.313 41.9185 266.969 42.8771 264.094 42.8771ZM264.679 36.7526C268.354 36.7526 271.336 33.7703 271.336 29.8293C271.336 25.8351 268.354 22.906 264.679 22.906C261.005 22.906 258.022 25.8351 258.022 29.8293C258.022 33.7703 261.005 36.7526 264.679 36.7526Z" fill="#323237"/>
<path d="M291.052 23.1723V33.1844C291.052 35.8473 292.223 37.0189 294.726 37.0189C296.537 37.0189 297.815 36.5396 300.105 35.4212L297.07 41.812C295.845 42.5043 294.354 42.8771 292.649 42.8771C287.963 42.8771 284.927 39.948 284.927 33.8768V23.1723H281.199V17.3141H284.927V10.9233L291.052 9.32563V17.3141H300.638L297.815 23.1723H291.052Z" fill="#323237"/>
<path d="M143.009 67.0496C141.948 67.0496 141.006 66.868 140.181 66.5047C139.361 66.1414 138.713 65.6358 138.237 64.9878C137.761 64.3398 137.508 63.5911 137.479 62.7418H140.247C140.272 63.1493 140.407 63.5052 140.652 63.8096C140.898 64.109 141.224 64.3422 141.632 64.5091C142.039 64.676 142.496 64.7595 143.001 64.7595C143.541 64.7595 144.02 64.6662 144.437 64.4797C144.854 64.2882 145.181 64.0231 145.417 63.6844C145.652 63.3457 145.768 62.9554 145.763 62.5136C145.768 62.057 145.65 61.6545 145.409 61.3059C145.169 60.9574 144.82 60.6849 144.364 60.4886C143.912 60.2922 143.367 60.194 142.729 60.194H141.396V58.088H142.729C143.254 58.088 143.713 57.9972 144.106 57.8155C144.503 57.6339 144.815 57.3786 145.041 57.0497C145.267 56.7159 145.377 56.3305 145.372 55.8936C145.377 55.4665 145.282 55.0959 145.085 54.7817C144.894 54.4626 144.621 54.2147 144.268 54.038C143.919 53.8612 143.509 53.7729 143.038 53.7729C142.577 53.7729 142.15 53.8563 141.757 54.0232C141.364 54.1901 141.047 54.4282 140.807 54.7375C140.566 55.0419 140.439 55.4052 140.424 55.8273H137.795C137.815 54.983 138.058 54.2417 138.524 53.6035C138.995 52.9604 139.624 52.4597 140.409 52.1013C141.195 51.738 142.076 51.5564 143.053 51.5564C144.059 51.5564 144.933 51.7454 145.674 52.1234C146.42 52.4965 146.997 52.9997 147.405 53.633C147.812 54.2662 148.016 54.9658 148.016 55.7316C148.021 56.5809 147.771 57.2927 147.265 57.8671C146.764 58.4414 146.106 58.817 145.291 58.9937V59.1115C146.352 59.2588 147.164 59.6515 147.729 60.2897C148.298 60.923 148.581 61.7109 148.576 62.6535C148.576 63.4979 148.335 64.2539 147.854 64.9215C147.378 65.5842 146.72 66.1046 145.88 66.4826C145.046 66.8606 144.089 67.0496 143.009 67.0496Z" fill="#323237"/>
<path d="M156.626 67.0496C155.904 67.0447 155.2 66.9195 154.513 66.6741C153.825 66.4237 153.207 66.0187 152.657 65.4591C152.107 64.8945 151.67 64.1459 151.346 63.2131C151.022 62.2755 150.863 61.1145 150.868 59.7301C150.868 58.439 151.005 57.2878 151.28 56.2765C151.555 55.2652 151.95 54.4111 152.465 53.714C152.981 53.0119 153.602 52.4769 154.328 52.1087C155.06 51.7405 155.877 51.5564 156.781 51.5564C157.728 51.5564 158.568 51.7429 159.299 52.116C160.035 52.4891 160.629 52.9997 161.081 53.6477C161.533 54.2908 161.812 55.0173 161.92 55.8273H159.233C159.095 55.2481 158.813 54.7866 158.386 54.443C157.964 54.0944 157.429 53.9201 156.781 53.9201C155.735 53.9201 154.93 54.3742 154.365 55.2824C153.806 56.1906 153.523 57.4375 153.518 59.0232H153.622C153.862 58.5912 154.174 58.2205 154.557 57.9113C154.94 57.602 155.372 57.3639 155.853 57.197C156.339 57.0252 156.852 56.9393 157.392 56.9393C158.275 56.9393 159.068 57.1503 159.77 57.5725C160.477 57.9947 161.037 58.5764 161.449 59.3177C161.862 60.0541 162.065 60.8985 162.06 61.8508C162.065 62.8425 161.839 63.7335 161.383 64.5239C160.926 65.3093 160.291 65.9279 159.476 66.3795C158.661 66.8312 157.711 67.0545 156.626 67.0496ZM156.611 64.8405C157.146 64.8405 157.625 64.7104 158.047 64.4502C158.469 64.19 158.803 63.839 159.049 63.3972C159.294 62.9554 159.414 62.4596 159.409 61.9097C159.414 61.3697 159.297 60.8813 159.056 60.4444C158.82 60.0075 158.494 59.6614 158.077 59.4061C157.659 59.1508 157.183 59.0232 156.648 59.0232C156.25 59.0232 155.88 59.0993 155.536 59.2515C155.193 59.4036 154.893 59.6147 154.638 59.8847C154.382 60.1498 154.181 60.4591 154.034 60.8126C153.892 61.1611 153.818 61.5342 153.813 61.9318C153.818 62.4571 153.941 62.9407 154.181 63.3825C154.422 63.8243 154.753 64.1778 155.175 64.4429C155.598 64.708 156.076 64.8405 156.611 64.8405Z" fill="#323237"/>
<path d="M169.792 67.0496C168.81 67.0496 167.932 66.8655 167.156 66.4973C166.38 66.1242 165.764 65.6137 165.308 64.9657C164.856 64.3177 164.616 63.5764 164.586 62.7418H167.237C167.286 63.3604 167.554 63.866 168.04 64.2588C168.526 64.6466 169.11 64.8405 169.792 64.8405C170.327 64.8405 170.804 64.7178 171.221 64.4723C171.638 64.2269 171.967 63.8857 172.208 63.4488C172.448 63.0118 172.566 62.5136 172.561 61.9539C172.566 61.3845 172.446 60.8788 172.2 60.437C171.955 59.9952 171.618 59.6491 171.191 59.3987C170.764 59.1435 170.273 59.0158 169.719 59.0158C169.267 59.0109 168.823 59.0944 168.386 59.2662C167.949 59.438 167.603 59.6638 167.348 59.9436L164.881 59.5386L165.669 51.7626H174.417V54.0453H167.929L167.495 58.0438H167.583C167.863 57.7149 168.258 57.4424 168.769 57.2264C169.279 57.0055 169.839 56.8951 170.448 56.8951C171.361 56.8951 172.176 57.1111 172.892 57.5431C173.609 57.9702 174.174 58.5593 174.586 59.3104C174.998 60.0615 175.205 60.9206 175.205 61.8877C175.205 62.8842 174.974 63.7728 174.512 64.5533C174.056 65.329 173.42 65.9401 172.605 66.3869C171.795 66.8287 170.858 67.0496 169.792 67.0496Z" fill="#323237"/>
<path d="M184.647 51.9549C185.173 51.9549 185.843 51.9549 186.659 51.9549C187.474 51.941 188.332 51.9134 189.23 51.8719C190.129 51.8166 190.958 51.7337 191.718 51.6231C192.244 51.554 192.755 51.471 193.253 51.3742C193.764 51.2775 194.248 51.1807 194.704 51.0839C195.174 50.9733 195.596 50.8558 195.969 50.7314C196.356 50.607 196.681 50.4895 196.944 50.3789L198.644 52.6599C198.285 52.7428 197.974 52.8189 197.711 52.888C197.449 52.9571 197.227 53.0124 197.048 53.0539C196.619 53.1645 196.156 53.2751 195.658 53.3857C195.161 53.4824 194.649 53.5723 194.124 53.6552C193.599 53.7382 193.066 53.8211 192.527 53.9041C191.739 54.0146 190.903 54.0976 190.018 54.1529C189.133 54.2082 188.276 54.2566 187.447 54.298C186.617 54.3257 185.898 54.3464 185.29 54.3603L184.647 51.9549ZM185.539 66.2421C186.756 65.6891 187.751 65.0186 188.525 64.2307C189.313 63.4289 189.894 62.5096 190.267 61.4728C190.654 60.4221 190.848 59.2471 190.848 57.9476C190.848 57.9476 190.848 57.7955 190.848 57.4914C190.848 57.1735 190.848 56.7034 190.848 56.0814C190.848 55.4454 190.848 54.6436 190.848 53.676L193.564 53.3649C193.564 53.7243 193.564 54.1114 193.564 54.5261C193.564 54.927 193.564 55.3279 193.564 55.7288C193.564 56.1297 193.564 56.4961 193.564 56.8279C193.564 57.1458 193.564 57.4085 193.564 57.6158C193.564 57.8094 193.564 57.9061 193.564 57.9061C193.564 59.2885 193.391 60.6018 193.046 61.846C192.714 63.0902 192.154 64.2376 191.366 65.2882C190.578 66.325 189.513 67.2443 188.173 68.0461L185.539 66.2421ZM183.092 56.9108C183.382 56.9384 183.694 56.9661 184.025 56.9937C184.357 57.0214 184.682 57.0352 185 57.0352C185.193 57.0352 185.56 57.0352 186.099 57.0352C186.638 57.0352 187.288 57.0352 188.048 57.0352C188.822 57.0352 189.652 57.0352 190.536 57.0352C191.421 57.0352 192.306 57.0352 193.191 57.0352C194.075 57.0352 194.905 57.0352 195.679 57.0352C196.453 57.0352 197.117 57.0352 197.67 57.0352C198.223 57.0352 198.596 57.0352 198.789 57.0352C198.942 57.0352 199.135 57.0283 199.37 57.0145C199.605 57.0007 199.84 56.9868 200.075 56.973C200.324 56.9454 200.524 56.9246 200.676 56.9108V59.5858C200.4 59.5581 200.096 59.5374 199.764 59.5236C199.446 59.5097 199.142 59.5028 198.852 59.5028C198.658 59.5028 198.285 59.5028 197.732 59.5028C197.193 59.5028 196.529 59.5028 195.741 59.5028C194.967 59.5028 194.131 59.5028 193.232 59.5028C192.347 59.5028 191.456 59.5028 190.557 59.5028C189.672 59.5028 188.843 59.5028 188.069 59.5028C187.295 59.5028 186.638 59.5028 186.099 59.5028C185.56 59.5028 185.207 59.5028 185.041 59.5028C184.723 59.5028 184.385 59.5097 184.025 59.5236C183.666 59.5374 183.355 59.5581 183.092 59.5858V56.9108Z" fill="#323237"/>
<path d="M210.303 53.676C210.344 53.911 210.393 54.1667 210.448 54.4432C210.517 54.7059 210.579 54.9754 210.635 55.2519C210.759 55.6528 210.904 56.1712 211.07 56.8071C211.25 57.443 211.443 58.1411 211.651 58.9015C211.858 59.6618 212.065 60.436 212.273 61.2239C212.494 61.9981 212.708 62.7446 212.916 63.4634C213.123 64.1685 213.303 64.7975 213.455 65.3504C213.607 65.8896 213.724 66.3043 213.807 66.5946C213.863 66.7052 213.918 66.8711 213.973 67.0923C214.029 67.3134 214.091 67.5346 214.16 67.7558C214.243 67.977 214.312 68.1567 214.367 68.295L211.547 69C211.506 68.7097 211.457 68.4056 211.402 68.0876C211.347 67.7696 211.271 67.4655 211.174 67.1752C211.091 66.8711 210.973 66.4356 210.821 65.8688C210.669 65.2882 210.496 64.6316 210.303 63.8989C210.109 63.1662 209.902 62.4059 209.681 61.6179C209.473 60.8299 209.273 60.0627 209.079 59.3162C208.886 58.5559 208.699 57.8716 208.52 57.2633C208.354 56.6412 208.215 56.1574 208.105 55.8118C208.036 55.5353 207.946 55.2726 207.835 55.0238C207.739 54.775 207.635 54.5469 207.524 54.3395L210.303 53.676ZM220.256 56.8693C220.049 57.3255 219.766 57.8439 219.406 58.4245C219.06 59.0052 218.68 59.5996 218.266 60.2079C217.851 60.8161 217.436 61.3967 217.021 61.9497C216.607 62.4888 216.213 62.9589 215.839 63.3598L213.558 62.2193C213.918 61.9013 214.298 61.5142 214.699 61.058C215.1 60.6018 215.473 60.1456 215.819 59.6894C216.178 59.2194 216.441 58.8185 216.607 58.4867C216.455 58.5144 216.164 58.5697 215.736 58.6526C215.321 58.7356 214.816 58.8393 214.222 58.9637C213.628 59.0881 212.978 59.2263 212.273 59.3784C211.582 59.5166 210.884 59.6618 210.178 59.8139C209.473 59.9659 208.803 60.1111 208.167 60.2493C207.531 60.3737 206.971 60.4912 206.487 60.6018C206.004 60.6986 205.637 60.7746 205.388 60.8299L204.746 58.3416C205.077 58.3139 205.395 58.2794 205.699 58.2379C206.004 58.1964 206.322 58.1481 206.653 58.0928C206.819 58.0651 207.11 58.0167 207.524 57.9476C207.953 57.8785 208.457 57.7886 209.038 57.678C209.632 57.5674 210.268 57.4499 210.946 57.3255C211.623 57.1873 212.307 57.056 212.999 56.9315C213.69 56.7933 214.34 56.6689 214.948 56.5583C215.556 56.4339 216.088 56.3302 216.544 56.2472C217.001 56.1505 217.332 56.0744 217.54 56.0191C217.72 55.9915 217.906 55.95 218.1 55.8947C218.293 55.8256 218.459 55.7565 218.597 55.6874L220.256 56.8693Z" fill="#323237"/>
<path d="M233.216 54.5261C233.313 54.7473 233.438 55.0653 233.59 55.48C233.756 55.8809 233.928 56.3164 234.108 56.7864C234.288 57.2426 234.447 57.678 234.585 58.0928C234.723 58.5075 234.834 58.8324 234.917 59.0674L232.428 59.9383C232.373 59.6756 232.276 59.3438 232.138 58.9429C232 58.542 231.848 58.1204 231.682 57.678C231.516 57.2218 231.35 56.7864 231.184 56.3717C231.018 55.9569 230.873 55.6113 230.749 55.3349L233.216 54.5261ZM240.868 56.0399C240.757 56.3717 240.661 56.6551 240.578 56.8901C240.509 57.1251 240.439 57.3463 240.37 57.5536C240.108 58.6043 239.748 59.6549 239.292 60.7055C238.836 61.7423 238.255 62.7169 237.55 63.6293C236.583 64.8735 235.484 65.931 234.253 66.802C233.037 67.659 231.82 68.3157 230.604 68.7719L228.426 66.5531C229.187 66.3458 229.988 66.0416 230.832 65.6407C231.675 65.226 232.491 64.7283 233.279 64.1477C234.067 63.5671 234.744 62.9243 235.311 62.2193C235.781 61.6248 236.195 60.9474 236.555 60.1871C236.928 59.413 237.232 58.5904 237.467 57.7195C237.716 56.8348 237.882 55.9638 237.965 55.1068L240.868 56.0399ZM228.406 55.6252C228.544 55.8878 228.696 56.2265 228.862 56.6412C229.041 57.056 229.221 57.4914 229.401 57.9476C229.581 58.4038 229.753 58.8462 229.919 59.2747C230.099 59.7033 230.237 60.0627 230.334 60.353L227.804 61.3069C227.721 61.0304 227.597 60.671 227.431 60.2286C227.279 59.7862 227.106 59.3231 226.913 58.8393C226.719 58.3416 226.532 57.8854 226.353 57.4707C226.187 57.056 226.042 56.738 225.917 56.5168L228.406 55.6252Z" fill="#323237"/>
<path d="M249.992 64.8528C249.992 64.5901 249.992 64.1615 249.992 63.5671C249.992 62.9589 249.992 62.2607 249.992 61.4728C249.992 60.671 249.992 59.8346 249.992 58.9637C249.992 58.0928 249.992 57.2564 249.992 56.4546C249.992 55.639 249.992 54.9201 249.992 54.298C249.992 53.676 249.992 53.2198 249.992 52.9295C249.992 52.57 249.971 52.1553 249.93 51.6853C249.902 51.2153 249.854 50.8005 249.785 50.4411H253.019C252.978 50.8005 252.936 51.2014 252.895 51.6438C252.854 52.0724 252.833 52.5009 252.833 52.9295C252.833 53.3165 252.833 53.8418 252.833 54.5054C252.833 55.169 252.833 55.9086 252.833 56.7242C252.833 57.526 252.833 58.3485 252.833 59.1918C252.833 60.0212 252.833 60.823 252.833 61.5972C252.833 62.3713 252.833 63.0487 252.833 63.6293C252.833 64.1961 252.833 64.6039 252.833 64.8528C252.833 65.0463 252.84 65.3228 252.854 65.6822C252.867 66.0278 252.895 66.3872 252.936 66.7605C252.978 67.1337 253.006 67.4655 253.019 67.7558H249.785C249.84 67.3411 249.888 66.8573 249.93 66.3043C249.971 65.7513 249.992 65.2675 249.992 64.8528ZM252.211 55.8118C252.902 55.9915 253.676 56.2265 254.533 56.5168C255.39 56.7933 256.254 57.0905 257.125 57.4085C257.996 57.7264 258.812 58.0444 259.572 58.3623C260.346 58.6665 260.989 58.9499 261.501 59.2125L260.319 62.0741C259.738 61.77 259.095 61.4658 258.39 61.1617C257.685 60.8438 256.966 60.5396 256.234 60.2493C255.515 59.959 254.803 59.6894 254.098 59.4406C253.406 59.1918 252.777 58.9706 252.211 58.7771V55.8118Z" fill="#323237"/>
<path fill-rule="evenodd" clip-rule="evenodd" d="M154.429 30.3073C154.429 23.7035 149.689 18.9104 142.286 18.9104C139.304 18.9104 136.907 19.656 135.097 21.0407C136.5 17.027 139.023 14.133 142.727 12.4934L132.278 13.7253L132.272 13.7336C129.387 17.7641 127.801 22.9839 127.801 29.0291C127.801 35.8237 131.525 40.5865 136.842 42.2376L154.071 33.3672C154.305 32.3985 154.429 31.3754 154.429 30.3073ZM134.191 30.6268C134.191 34.3015 136.907 36.7513 141.115 36.7513C145.322 36.7513 148.038 34.3015 148.038 30.6268C148.038 26.9521 145.322 24.5023 141.115 24.5023C136.907 24.5023 134.191 26.9521 134.191 30.6268Z" fill="#FF8B20"/>
<path fill-rule="evenodd" clip-rule="evenodd" d="M98 40.852C101.036 42.1302 105.562 42.8758 109.131 42.8758C118.397 42.8758 123.03 38.0294 123.03 31.5322C123.03 24.6621 118.184 21.733 112.699 20.7211L117.688 15.4456L108.808 16.4926L108.772 16.4969L108.75 16.5205L104.923 20.6679V25.461C110.409 25.9403 116.373 26.8989 116.373 31.8517C116.373 35.7927 112.645 37.0176 108.545 37.0176C105.456 37.0176 101.834 36.3252 98 34.4613V40.852ZM159.759 22.9579C164.767 23.1228 168.578 23.6249 171.36 24.4659L178.42 20.8311C175.768 19.284 172.016 18.1747 166.788 17.8986L167.747 11.7208H183.191V7.72241L161.707 10.2555L159.759 22.9579Z" fill="#FF8B20"/>
<path d="M154.071 33.3671L136.842 42.2375C138.193 42.6571 139.646 42.8757 141.168 42.8757C147.495 42.8757 152.693 39.0634 154.071 33.3671Z" fill="#323237"/>
<path d="M117.688 15.4456L108.772 16.4968L113.178 11.7208H98.7988V5.59633H121.965V10.922L117.688 15.4456Z" fill="#323237"/>
<path d="M132.278 13.7253C136.308 8.10303 142.868 4.79749 151.18 4.79749V10.922C147.88 10.922 145.067 11.4571 142.727 12.4934L132.278 13.7253Z" fill="#323237"/>
<path d="M158.693 40.5857C161.729 41.8639 165.084 42.8757 170.037 42.8757C180.156 42.8757 184.256 36.485 184.256 30.5735C184.256 27.3548 182.927 23.4605 178.42 20.831L171.36 24.4659C175.76 25.7983 177.599 27.9858 177.599 31.0528C177.599 34.9405 174.883 37.0175 169.877 37.0175C165.084 37.0175 162.528 36.0589 158.693 34.195V40.5857Z" fill="#323237"/>
<path d="M183.191 7.72238L161.707 10.2555L162.421 5.59633H183.191V7.72238Z" fill="#323237"/>
<path d="M31.9707 59.8458C32.2155 60.1842 32.4897 60.5073 32.7972 60.8148C34.4158 62.4334 36.4554 63.1321 38.889 63.4593C41.2355 63.7748 44.2207 63.7748 47.932 63.7747H58.4247L66.5832 68.6698C67.1924 69.0353 67.9511 69.0449 68.5692 68.6949C69.1874 68.3449 69.5696 67.6894 69.5696 66.979V63.5997C72.6119 63.3479 75.0811 62.6957 76.962 60.8148C78.5843 59.1925 79.2807 57.1361 79.6069 54.6832C79.922 52.3135 79.9219 49.2927 79.9219 45.5314V45.2434C79.9219 41.4821 79.922 38.4612 79.6069 36.0915C79.2807 33.6386 78.5843 31.5822 76.962 29.9599C75.9209 28.9188 74.7056 28.2583 73.3234 27.8324C73.3532 29.5788 73.3532 31.4956 73.3532 33.5962V33.8916C73.3532 38.9356 73.3533 42.9201 72.9396 46.0308C72.5149 49.2247 71.6216 51.7989 69.6056 53.8148C67.5934 55.8271 65.0401 56.7228 61.8736 57.1485C58.7942 57.5625 54.8578 57.5625 49.88 57.5624H35.7763L31.9707 59.8458Z" fill="#FF8B20"/>
<path d="M53.569 39.481C53.9109 38.449 53.3514 37.3353 52.3195 36.9934C51.2874 36.6515 50.1737 37.211 49.8318 38.243C49.6749 38.7166 49.6399 38.814 49.6078 38.8851C49.3197 39.5226 48.7149 39.9594 48.0191 40.0324C47.9416 40.0405 47.8381 40.0431 47.3391 40.0431H36.6993C36.4599 40.0431 36.4098 40.0425 36.373 40.0407C35.553 40 34.8443 39.4547 34.595 38.6725C34.5838 38.6374 34.5704 38.5891 34.509 38.3577C34.2305 37.3068 33.1528 36.6807 32.102 36.9592C31.0511 37.2377 30.425 38.3154 30.7035 39.3663L30.7133 39.4034C30.7592 39.5768 30.7991 39.7275 30.844 39.8683C31.5921 42.2149 33.7181 43.8508 36.178 43.9728C36.3256 43.9801 36.4814 43.9801 36.6609 43.98L47.4188 43.98C47.7934 43.9802 48.1196 43.9803 48.4296 43.9478C50.517 43.729 52.3314 42.4187 53.1955 40.506C53.3239 40.222 53.4263 39.9124 53.544 39.5567L53.569 39.481Z" fill="#323237"/>
<path fill-rule="evenodd" clip-rule="evenodd" d="M31.3662 3.43198C31.9422 2.85601 32.876 2.85601 33.452 3.43198L39.1019 9.08188L44.7518 3.43198C45.3277 2.85601 46.2616 2.85601 46.8375 3.43198L47.5356 4.13003C48.1116 4.706 48.1116 5.63984 47.5356 6.21581L43.826 9.92547H49.88C54.8578 9.92543 58.7942 9.9254 61.8736 10.3394C65.0401 10.7651 67.5934 11.6608 69.6056 13.6731C71.6215 15.689 72.5149 18.2632 72.9396 21.4572C73.3533 24.5679 73.3532 28.5522 73.3532 33.5963V33.8916C73.3532 38.9357 73.3533 42.92 72.9396 46.0307C72.5149 49.2247 71.6215 51.7989 69.6056 53.8148C67.5934 55.8271 65.0401 56.7228 61.8736 57.1485C58.7942 57.5625 54.8578 57.5625 49.88 57.5624H35.7763L24.7606 64.1719C24.1524 64.5368 23.3951 64.5463 22.7779 64.1969C22.1608 63.8475 21.7793 63.1931 21.7793 62.4839V57.3771C17.4952 57.0805 14.2064 56.2737 11.7476 53.8148C9.73164 51.7989 8.83825 49.2247 8.41356 46.0307C7.99993 42.92 7.99996 38.9357 8 33.8915V33.5964C7.99996 28.5522 7.99993 24.5679 8.41356 21.4572C8.83825 18.2632 9.73164 15.689 11.7476 13.6731C13.7598 11.6608 16.3131 10.7651 19.4796 10.3394C22.559 9.9254 26.4954 9.92543 31.4732 9.92547H34.3778L30.6681 6.21582C30.0922 5.63984 30.0922 4.70601 30.6681 4.13003L31.3662 3.43198ZM20.0042 14.2412C17.2743 14.6083 15.6902 15.2981 14.5314 16.4569C13.3763 17.612 12.6842 19.208 12.3161 21.9761C11.941 24.7971 11.9369 28.5194 11.9369 33.7439C11.9369 38.9685 11.941 42.6908 12.3161 45.5118C12.6842 48.2799 13.3763 49.8759 14.5314 51.031C16.1673 52.6669 18.6187 53.3436 23.8228 53.5421C24.88 53.5824 25.7163 54.4512 25.7163 55.5091V59.0072L34.2183 53.906C34.5242 53.7225 34.8743 53.6255 35.2311 53.6255H49.7316C54.8909 53.6255 58.5624 53.6213 61.349 53.2467C64.0789 52.8796 65.6629 52.1898 66.8218 51.031C67.9768 49.8759 68.669 48.2799 69.037 45.5118C69.4122 42.6907 69.4162 38.9685 69.4162 33.7439C69.4162 28.5194 69.4122 24.7971 69.037 21.9761C68.669 19.208 67.9768 17.612 66.8218 16.4569C65.663 15.2981 64.0789 14.6083 61.349 14.2412C58.5624 13.8666 54.8909 13.8624 49.7315 13.8624H31.6216C26.4623 13.8624 22.7908 13.8666 20.0042 14.2412Z" fill="#323237"/>
<path d="M36.3974 25.4765C36.3974 24.3894 35.5161 23.5081 34.4289 23.5081C33.3418 23.5081 32.4604 24.3894 32.4604 25.4765V30.2009C32.4604 31.288 33.3418 32.1693 34.4289 32.1693C35.5161 32.1693 36.3974 31.288 36.3974 30.2009V25.4765Z" fill="#FF8B20"/>
<path d="M52.2521 25.4765C52.2521 24.3894 51.3708 23.5081 50.2837 23.5081C49.1965 23.5081 48.3152 24.3894 48.3152 25.4765V30.2009C48.3152 31.288 49.1965 32.1693 50.2837 32.1693C51.3708 32.1693 52.2521 31.288 52.2521 30.2009V25.4765Z" fill="#FF8B20"/>
</svg>
